<svg xmlns="http://www.w3.org/2000/svg" width="1080" height="1080" viewBox="0 0 1080 1080" fill="none">
<path d="M798.59 538.67H790.13V604.83H798.59C805.51 604.83 811.67 602.52 815.52 597.14C819.37 591.76 821.7 584.06 821.7 574.06V569.44C821.7 559.44 819.39 551.75 815.55 546.36C811.71 540.97 806.28 538.67 798.59 538.67Z" fill="url(#paint0_linear)"/>
<path d="M10 470.96V676.38H1069.4V470.96H10ZM164.64 624.07H95.4V519.43H120.78V604.83H164.64V624.07ZM291.58 538.67H244.7V560.98H284.7V579.44H244.7V604.83H291.63V624.07H219.26V519.43H291.58V538.67ZM432.37 610.99H431.61C427.76 615.6 422.37 618.68 414.68 621.76C406.715 624.279 398.414 625.574 390.06 625.6C376.21 625.6 365.44 621.76 356.98 613.29C348.52 604.82 344.67 593.29 343.9 577.9V568.67C343.9 558.67 345.44 549.44 349.28 541.74C353.12 534.04 358.52 527.9 364.67 524.05C371.944 519.946 380.168 517.822 388.52 517.89C401.6 517.89 411.6 520.97 419.3 527.13C426.22 533.28 430.84 541.74 431.61 554.05H407.75C406.99 547.9 404.68 544.05 402.37 541.74C398.817 539.11 394.479 537.757 390.06 537.9C383.9 537.9 378.52 540.21 375.44 545.59C372.36 550.97 370.06 558.67 370.06 568.67V574.83C370.06 585.6 371.6 593.29 375.44 598.68C379.28 604.07 384.67 606.37 392.37 606.37C399.29 606.37 403.91 604.83 406.99 601.75V585.6H389.29V567.9H432.37V610.99ZM562.37 538.67H515.47V560.98H555.47V579.44H515.47V604.83H562.4V624.07H490.08V519.43H562.4L562.37 538.67ZM704.7 624.07H679.34L642.41 558.67V624.07H617.02V519.43H642.41L679.34 584.83V519.43H704.7V624.07ZM847.06 573.29C847.029 582.366 844.922 591.314 840.9 599.45C837.158 606.92 831.265 613.099 823.98 617.19C816.428 621.296 807.956 623.415 799.36 623.35H765.51V519.43H799.36C807.956 519.365 816.428 521.484 823.98 525.59C831.26 529.665 837.153 535.826 840.9 543.28C844.919 551.142 847.029 559.84 847.06 568.67V573.29ZM974 617.91C967.08 623.3 957.85 625.6 945.54 625.6C937.607 625.712 929.741 624.14 922.46 620.99C915.53 617.91 910.15 614.06 907.07 608.68C903.68 603.099 901.827 596.719 901.7 590.19H927.09C927.09 595.58 928.63 600.19 931.71 602.5C934.79 604.81 939.4 606.35 945.56 606.35C949.4 606.35 953.25 605.58 955.56 603.27C956.51 602.381 957.271 601.31 957.8 600.122C958.329 598.933 958.615 597.651 958.64 596.35C958.64 592.5 957.1 589.42 954.79 587.89C952.48 585.58 947.87 584.04 940.94 581.73C934.01 579.42 928.63 577.12 924.78 575.58C910.94 568.65 904.78 559.42 904.78 547.88C904.78 541.72 906.32 537.11 910.17 532.49C913.24 527.88 918.63 524.8 924.78 522.49C931.417 519.961 938.458 518.656 945.56 518.64C952.417 518.577 959.217 519.886 965.56 522.49C971.413 524.548 976.33 528.644 979.41 534.03C982.49 538.65 984.03 544.8 984.03 550.96H958.62C958.709 549.117 958.413 547.276 957.75 545.554C957.087 543.832 956.072 542.267 954.77 540.96C952.46 538.65 948.61 537.11 944 537.11C939.39 537.11 936.3 537.88 933.23 540.19C930.92 542.49 929.38 544.8 929.38 547.88C929.464 549.34 929.936 550.752 930.748 551.969C931.561 553.185 932.683 554.163 934 554.8C937.07 557.11 941.69 559.42 949.38 561.73C956.31 564.04 962.46 566.34 967.08 569.42C978.62 575.58 984.01 584.81 984.01 596.35C984.01 605.6 980.93 612.53 974 617.91Z" fill="url(#paint1_linear)"/>
<path d="M191.56 231.69H110.78V450.96H90.78V231.69H10V214.77H191.56V231.69Z" fill="white"/>
<path d="M376.21 337.86H266.21V434.03H393.21V450.96H246.19V214.77H392.37V231.69H266.19V320.94H376.19L376.21 337.86Z" fill="white"/>
<path d="M614.7 231.69H533.93V450.96H513.93V231.69H433.14V214.77H614.7V231.69Z" fill="white"/>
<path d="M757.81 352.48H689.34V450.96H669.34V214.77H746.27C771.66 214.77 790.9 220.92 805.51 233.23C819.36 245.54 827.06 262.47 827.06 284.01C827.208 298.417 822.611 312.473 813.98 324.01C804.74 335.55 793.2 343.24 778.59 347.86L837.83 448.64V450.95H816.28L757.81 352.48ZM689.34 335.56H750.12C767.05 335.56 780.12 330.94 790.12 320.94C800.12 311.71 805.5 299.4 805.5 284.01C805.5 267.08 800.12 254.77 789.35 245.54C778.58 236.31 763.97 231.69 744.7 231.69H688.57V335.56H689.34Z" fill="white"/>
<path d="M1024.01 384.03H917.07L892.45 450.19H871.7L960.94 214H980.18L1069.42 451H1048.65L1024.01 384.03ZM923.23 367.87H1017.86L970.16 239.39L923.23 367.87Z" fill="white"/>
<path d="M205.371 794.12V830.19H184.277V727.815H224.214C231.902 727.815 238.652 729.221 244.464 732.034C250.324 734.846 254.824 738.854 257.964 744.057C261.105 749.213 262.675 755.096 262.675 761.706C262.675 771.737 259.23 779.659 252.339 785.471C245.496 791.237 236.003 794.12 223.863 794.12H205.371ZM205.371 777.034H224.214C229.793 777.034 234.035 775.721 236.941 773.096C239.894 770.471 241.371 766.721 241.371 761.846C241.371 756.831 239.894 752.776 236.941 749.682C233.988 746.588 229.91 744.995 224.707 744.901H205.371V777.034ZM412.804 813.245H457.593V830.19H391.71V727.815H412.804V813.245ZM660.034 727.815V795.245C660.034 806.448 656.518 815.307 649.487 821.823C642.503 828.338 632.94 831.596 620.799 831.596C608.846 831.596 599.354 828.432 592.323 822.104C585.292 815.776 581.706 807.081 581.565 796.018V727.815H602.659V795.385C602.659 802.088 604.253 806.987 607.44 810.081C610.674 813.128 615.128 814.651 620.799 814.651C632.659 814.651 638.682 808.417 638.87 795.948V727.815H660.034ZM844.897 803.331C844.897 799.346 843.49 796.299 840.678 794.19C837.865 792.034 832.803 789.784 825.49 787.44C818.178 785.049 812.389 782.706 808.123 780.409C796.498 774.128 790.686 765.667 790.686 755.026C790.686 749.495 792.232 744.573 795.326 740.26C798.467 735.901 802.943 732.503 808.756 730.065C814.615 727.628 821.178 726.409 828.443 726.409C835.756 726.409 842.272 727.745 847.99 730.417C853.709 733.042 858.139 736.768 861.279 741.596C864.467 746.424 866.061 751.909 866.061 758.049H844.967C844.967 753.362 843.49 749.729 840.537 747.151C837.584 744.526 833.436 743.213 828.092 743.213C822.936 743.213 818.928 744.315 816.068 746.518C813.209 748.674 811.779 751.534 811.779 755.096C811.779 758.424 813.443 761.213 816.772 763.463C820.147 765.713 825.092 767.823 831.607 769.792C843.607 773.401 852.35 777.878 857.834 783.221C863.318 788.565 866.061 795.221 866.061 803.19C866.061 812.049 862.709 819.01 856.006 824.073C849.303 829.088 840.279 831.596 828.936 831.596C821.061 831.596 813.889 830.167 807.42 827.307C800.951 824.401 796.006 820.44 792.584 815.424C789.209 810.409 787.522 804.596 787.522 797.987H808.686C808.686 809.284 815.436 814.932 828.936 814.932C833.951 814.932 837.865 813.924 840.678 811.909C843.49 809.846 844.897 806.987 844.897 803.331Z" fill="white"/>
<defs>
<linearGradient id="paint0_linear" x1="9.99999" y1="471" x2="1069" y2="676" gradientUnits="userSpaceOnUse">
<stop stop-color="#FFA800"/>
<stop offset="1" stop-color="#FF3D00"/>
</linearGradient>
<linearGradient id="paint1_linear" x1="9.99999" y1="471" x2="1069" y2="676" gradientUnits="userSpaceOnUse">
<stop stop-color="#FFA800"/>
<stop offset="1" stop-color="#FF3D00"/>
</linearGradient>
</defs>
</svg>