<?xml version="1.0" encoding="UTF-8" standalone="no"?><svg xmlns:dc="http://purl.org/dc/elements/1.1/" xmlns:cc="http://creativecommons.org/ns#" xmlns:rdf="http://www.w3.org/1999/02/22-rdf-syntax-ns#" xmlns:svg="http://www.w3.org/2000/svg" xmlns="http://www.w3.org/2000/svg" id="svg69" stroke-miterlimit="10" stroke-linecap="square" stroke="none" fill="none" viewBox="0.0 0.0 348.0 348.0" version="1.1"><metadata id="metadata75"><rdf:RDF><cc:Work rdf:about=""><dc:format>image/svg+xml</dc:format><dc:type rdf:resource="http://purl.org/dc/dcmitype/StillImage"/></cc:Work></rdf:RDF></metadata><defs id="defs73"/><clipPath id="p.0"><path id="path2" clip-rule="nonzero" d="m0 0l348.0 0l0 348.0l-348.0 0l0 -348.0z"/></clipPath><g id="g63" clip-path="url(#p.0)"><path id="path5" fill-rule="nonzero" d="M 0,0 H 348 V 348 H 0 Z" fill-opacity="0" fill="#000000"/><path id="path7" fill-rule="nonzero" d="M -6,0 H 342 V 347.9685 H -6 Z" fill="#ffffff"/><path id="path9" fill-rule="nonzero" d="m 5.07874,5.7758217 h 336.9134 V 343.44512 H 5.07874 Z" fill-opacity="0" fill="#000000"/><path id="path11" fill-rule="nonzero" d="m 5.07874,5.7758217 h 336.9134 V 343.44512 H 5.07874 Z" stroke-linecap="butt" stroke-linejoin="round" stroke-width="2" stroke="#000000"/><path id="path13" fill-rule="nonzero" d="M 17.036913,71.17821 H 242.42274 V 306.51679 H 17.036913 Z" fill="#ffffff"/><path id="path15" fill-rule="nonzero" d="M 17.036913,71.17821 H 242.42274 V 306.51679 H 17.036913 Z" stroke-linecap="butt" stroke-linejoin="round" stroke-width="2" stroke="#000000"/><path id="path17" fill-rule="nonzero" d="m 273.45645,109.96049 h 46.2677 v 196.56694 h -46.2677 z" fill="#000000"/><path id="path19" fill-rule="nonzero" d="m 273.45645,109.96049 h 46.2677 v 196.56694 h -46.2677 z" stroke-linecap="butt" stroke-linejoin="round" stroke-width="2" stroke="#000000"/><path id="path21" fill-rule="nonzero" d="m 282.73444,40.553925 v 0 c 0,-8.375591 6.96603,-15.165352 15.55905,-15.165352 v 0 c 4.12653,0 8.08402,1.597773 11.00192,4.441828 2.91788,2.844057 4.55713,6.701422 4.55713,10.723524 v 0 c 0,8.375595 -6.966,15.165356 -15.55905,15.165356 v 0 c -8.59302,0 -15.55905,-6.789761 -15.55905,-15.165356 z" fill="#ffffff"/><path id="path23" fill-rule="nonzero" d="m 282.73444,40.553925 v 0 c 0,-8.375591 6.96603,-15.165352 15.55905,-15.165352 v 0 c 4.12653,0 8.08402,1.597773 11.00192,4.441828 2.91788,2.844057 4.55713,6.701422 4.55713,10.723524 v 0 c 0,8.375595 -6.966,15.165356 -15.55905,15.165356 v 0 c -8.59302,0 -15.55905,-6.789761 -15.55905,-15.165356 z" stroke-linecap="butt" stroke-linejoin="round" stroke-width="2" stroke="#000000"/><path id="path25" fill-rule="nonzero" d="m 31.55643,188.84772 v 0 c 0,-54.95017 43.953648,-99.49606 98.17323,-99.49606 v 0 c 26.03715,0 51.00789,10.48259 69.41894,29.14172 18.41106,18.65914 28.75428,43.96634 28.75428,70.35434 v 0 c 0,54.95017 -43.95365,99.49606 -98.17322,99.49606 v 0 c -54.219583,0 -98.173233,-44.5459 -98.173233,-99.49606 z" fill="#ffffff"/><path id="path27" fill-rule="nonzero" d="m 31.55643,188.84772 v 0 c 0,-54.95017 43.953648,-99.49606 98.17323,-99.49606 v 0 c 26.03715,0 51.00789,10.48259 69.41894,29.14172 18.41106,18.65914 28.75428,43.96634 28.75428,70.35434 v 0 c 0,54.95017 -43.95365,99.49606 -98.17322,99.49606 v 0 c -54.219583,0 -98.173233,-44.5459 -98.173233,-99.49606 z" stroke-linecap="butt" stroke-linejoin="round" stroke-width="2" stroke="#000000"/><path id="path29" fill-rule="nonzero" d="m 45.42257,153.48425 h 202.51968 v 70.67717 H 45.42257 Z" fill-opacity="0" fill="#000000"/><path id="path31" fill-rule="nonzero" d="M 40.969852,95.99732 H 218.89111 v 185.7008 H 40.969852 Z" fill-opacity="0" fill="#000000"/><path id="path33" d="M 40.969852,95.99732 H 218.89111 v 185.7008 H 40.969852 Z" stroke-linecap="butt" stroke-linejoin="round" stroke-width="1" stroke="#000000"/><path id="path35" fill-rule="nonzero" d="M 17.708662,72.89501 41.173229,95.950132" fill-opacity="0" fill="#000000"/><path id="path37" fill-rule="nonzero" d="M 17.708662,72.89501 41.173229,95.950132" stroke-linecap="butt" stroke-linejoin="round" stroke-width="1" stroke="#000000"/><path id="path39" fill-rule="nonzero" d="m 219.0971,281.69553 23.08662,24.28348" fill-opacity="0" fill="#000000"/><path id="path41" d="m 219.0971,281.69553 23.08662,24.28348" stroke-linecap="butt" stroke-linejoin="round" stroke-width="1" stroke="#000000"/><path id="path43" fill-rule="nonzero" d="M 242.15749,72.89501 219.51181,95.950132" fill-opacity="0" fill="#000000"/><path id="path45" fill-rule="nonzero" d="M 242.15749,72.89501 219.51181,95.950132" stroke-linecap="butt" stroke-linejoin="round" stroke-width="1" stroke="#000000"/><path id="path47" fill-rule="nonzero" d="M 40.76378,281.70078 18.11811,304.75592" fill-opacity="0" fill="#000000"/><path id="path49" fill-rule="nonzero" d="M 40.76378,281.70078 18.11811,304.75592" stroke-linecap="butt" stroke-linejoin="round" stroke-width="1" stroke="#000000"/><path id="path51" fill-rule="nonzero" fill-opacity="0" fill="#000000"/><path id="path53" fill-rule="nonzero" d="M 55.18635,58.892387 H 81.139105 V 71.17585 H 55.18635 Z" stroke-linecap="butt" stroke-linejoin="round" stroke-width="2" stroke="#000000"/><path id="path55" fill-rule="nonzero" d="m 180.33595,58.892387 h 25.95276 V 71.17585 h -25.95276 z" fill-opacity="0" fill="#000000"/><path id="path57" fill-rule="nonzero" d="m 180.33595,58.892387 h 25.95276 V 71.17585 h -25.95276 z" stroke-linecap="butt" stroke-linejoin="round" stroke-width="2" stroke="#000000"/><path id="path59" fill-rule="nonzero" d="m 84.14173,63.422573 h 92.25196 v 7.748028 H 84.14173 Z" fill-opacity="0" fill="#000000"/><path id="path61" fill-rule="nonzero" d="m 84.14173,63.422573 h 92.25196 v 7.748028 H 84.14173 Z" stroke-linecap="butt" stroke-linejoin="round" stroke-width="2" stroke="#000000"/></g><g style="font-size:42px;font-family:'DejaVu Sans', sans-serif;text-anchor:middle;fill:#000000" id="text67" aria-label="[ TEXT ]"><path id="path77" d="m 51.839844,171.08984 h 8.695312 v 2.93262 h -4.921875 v 31.58203 h 4.921875 v 2.93262 h -8.695312 z"/><path id="path79" d="m 77.884766,172.38184 h 25.901364 v 3.48632 H 92.916992 V 203 h -4.163086 v -27.13184 h -10.86914 z"/><path id="path81" d="m 107.80566,172.38184 h 19.35938 v 3.48632 h -15.2168 v 9.06446 h 14.58106 v 3.48633 h -14.58106 v 11.09472 h 15.58594 V 203 h -19.72852 z"/><path id="path83" d="m 132.90723,172.38184 h 4.45019 l 7.6084,11.38183 7.64941,-11.38183 h 4.4502 l -9.84375,14.7041 10.5,15.91406 h -4.4502 L 144.6582,189.97754 135.9834,203 h -4.4707 l 10.93066,-16.34473 z"/><path id="path85" d="m 158.19336,172.38184 h 25.90137 v 3.48632 H 173.22559 V 203 h -4.16309 v -27.13184 h -10.86914 z"/><path id="path87" d="m 210.13965,171.08984 v 37.44727 h -8.69531 v -2.93262 h 4.90136 v -31.58203 h -4.90136 v -2.93262 z"/></g></svg>