<?xml version="1.0" encoding="UTF-8" standalone="no"?>
<svg
   xmlns:dc="http://purl.org/dc/elements/1.1/"
   xmlns:cc="http://creativecommons.org/ns#"
   xmlns:rdf="http://www.w3.org/1999/02/22-rdf-syntax-ns#"
   xmlns:svg="http://www.w3.org/2000/svg"
   xmlns="http://www.w3.org/2000/svg"
   id="svg173"
   stroke-miterlimit="10"
   stroke-linecap="square"
   stroke="none"
   fill="none"
   viewBox="0.0 0.0 1234.0 802.0"
   version="1.1">
  <metadata
     id="metadata179">
    <rdf:RDF>
      <cc:Work
         rdf:about="">
        <dc:format>image/svg+xml</dc:format>
        <dc:type
           rdf:resource="http://purl.org/dc/dcmitype/StillImage" />
      </cc:Work>
    </rdf:RDF>
  </metadata>
  <defs
     id="defs177" />
  <clipPath
     id="p.0">
    <path
       id="path2"
       clip-rule="nonzero"
       d="m0 0l1234.0 0l0 802.0l-1234.0 0l0 -802.0z" />
  </clipPath>
  <g
     id="g167"
     clip-path="url(#p.0)">
    <path
       id="path5"
       fill-rule="evenodd"
       d="M 0,0 H 1234 V 802 H 0 Z"
       fill-opacity="0"
       fill="#000000" />
    <path
       id="path7"
       fill-rule="evenodd"
       d="M 0,-0.00131234 H 1232 V 800.03025 H 0 Z"
       fill="#ffffff" />
    <path
       id="path9"
       fill-rule="evenodd"
       d="M 0,-0.00131234 H 1232 V 800.03025 H 0 Z"
       stroke-linecap="butt"
       stroke-linejoin="round"
       stroke-width="2"
       stroke="#000000" />
    <path
       id="path11"
       fill-rule="evenodd"
       d="m 54.20866,40.560368 h 348 V 388.52887 h -348 z"
       fill="#ffffff" />
    <path
       id="path13"
       fill-rule="evenodd"
       d="m 65.2874,46.33619 h 336.9134 v 337.6693 H 65.2874 Z"
       fill-opacity="0"
       fill="#000000" />
    <path
       id="path15"
       fill-rule="evenodd"
       d="m 65.2874,46.33619 h 336.9134 v 337.6693 H 65.2874 Z"
       stroke-linecap="butt"
       stroke-linejoin="round"
       stroke-width="2"
       stroke="#000000" />
    <path
       id="path17"
       fill-rule="evenodd"
       d="m 81.65092,139.12111 h 304.189 v 208.03148 h -304.189 z"
       fill="#ffffff" />
    <path
       id="path19"
       fill-rule="evenodd"
       d="m 81.65092,139.12111 h 304.189 v 208.03148 h -304.189 z"
       stroke-linecap="butt"
       stroke-linejoin="round"
       stroke-width="2"
       stroke="#000000" />
    <path
       id="path21"
       fill-rule="evenodd"
       d="m 89.41207,150.47804 h 288.78738 v 181.6378 H 89.41207 Z"
       fill-opacity="0"
       fill="#000000" />
    <path
       id="path23"
       fill-rule="nonzero"
       d="m 114.55576,263.17694 11.8125,-1 q 1.3125,8.625 6.09376,12.96875 4.78125,4.34375 11.53125,4.34375 8.125,0 13.75,-6.125 5.625,-6.125 5.625,-16.25 0,-9.62502 -5.40625,-15.18752 -5.40625,-5.5625 -14.15625,-5.5625 -5.4375,0 -9.8125,2.46875 -4.375,2.46875 -6.87501,6.40625 l -10.5625,-1.375 8.875,-47.0625 h 45.56251 v 10.75 h -36.5625 l -4.9375,24.625 q 8.25,-5.75 17.3125,-5.75 12,0 20.25,8.3125 8.25,8.3125 8.25,21.37502 0,12.4375 -7.25,21.5 -8.8125,11.125 -24.0625,11.125 -12.5,0 -20.40626,-7 -7.90625,-7 -9.03125,-18.5625 z m 77.43751,-29.56252 v -12.8125 h 12.8125 v 12.8125 z m 0,53.56252 v -12.8125 h 12.8125 v 12.8125 z m 29.3125,-45.18752 q 0,-16.25 3.34375,-26.15625 3.34375,-9.90625 9.9375,-15.28125 6.59375,-5.375 16.59375,-5.375 7.37498,0 12.93748,2.96875 5.5625,2.96875 9.1875,8.5625 3.625,5.59375 5.6875,13.625 2.0625,8.03125 2.0625,21.65625 0,16.12502 -3.3125,26.03127 -3.3125,9.90625 -9.90625,15.3125 -6.59375,5.40625 -16.65623,5.40625 -13.25,0 -20.8125,-9.5 -9.0625,-11.4375 -9.0625,-37.25002 z m 11.5625,0 q 0,22.56252 5.28125,30.03127 5.28125,7.46875 13.03125,7.46875 7.74998,0 13.03123,-7.5 5.28125,-7.5 5.28125,-30.00002 0,-22.625 -5.28125,-30.0625 -5.28125,-7.4375 -13.15623,-7.4375 -7.75,0 -12.375,6.5625 -5.8125,8.375 -5.8125,30.9375 z m 59.62498,0 q 0,-16.25 3.34375,-26.15625 3.34375,-9.90625 9.9375,-15.28125 6.59375,-5.375 16.59375,-5.375 7.375,0 12.9375,2.96875 5.5625,2.96875 9.1875,8.5625 3.625,5.59375 5.6875,13.625 2.0625,8.03125 2.0625,21.65625 0,16.12502 -3.3125,26.03127 -3.3125,9.90625 -9.90625,15.3125 -6.59375,5.40625 -16.65625,5.40625 -13.25,0 -20.8125,-9.5 -9.0625,-11.4375 -9.0625,-37.25002 z m 11.5625,0 q 0,22.56252 5.28125,30.03127 5.28125,7.46875 13.03125,7.46875 7.75,0 13.03125,-7.5 5.28125,-7.5 5.28125,-30.00002 0,-22.625 -5.28125,-30.0625 -5.28125,-7.4375 -13.15625,-7.4375 -7.75,0 -12.375,6.5625 -5.8125,8.375 -5.8125,30.9375 z"
       fill="#000000" />
    <path
       id="path25"
       fill-rule="evenodd"
       d="M 457.3281,422.8664 H 794.24146 V 760.5357 H 457.3281 Z"
       fill-opacity="0"
       fill="#000000" />
    <path
       id="path27"
       fill-rule="evenodd"
       d="M 457.3281,422.8664 H 794.24146 V 760.5357 H 457.3281 Z"
       stroke-linecap="butt"
       stroke-linejoin="round"
       stroke-width="2"
       stroke="#000000" />
    <path
       id="path29"
       fill-rule="evenodd"
       d="M 843.65356,45.708893 H 1180.5669 V 383.37819 H 843.65356 Z"
       fill-opacity="0"
       fill="#000000" />
    <path
       id="path31"
       fill-rule="evenodd"
       d="M 843.65356,45.708893 H 1180.5669 V 383.37819 H 843.65356 Z"
       stroke-linecap="butt"
       stroke-linejoin="round"
       stroke-width="2"
       stroke="#000000" />
    <path
       id="path33"
       fill-rule="evenodd"
       d="m 183.8924,65.91076 h 106.64566 v 63.40157 H 183.8924 Z"
       fill-opacity="0"
       fill="#000000" />
    <path
       id="path35"
       fill-rule="evenodd"
       d="m 183.8924,65.91076 h 106.64566 v 63.40157 H 183.8924 Z"
       stroke-linecap="butt"
       stroke-linejoin="round"
       stroke-width="2"
       stroke="#000000" />
    <path
       id="path37"
       fill-rule="evenodd"
       d="m 308.15222,97.61155 v 0 c 0,-17.507866 15.0672,-31.70079 33.65356,-31.70079 v 0 c 8.92548,0 17.48539,3.339897 23.79663,9.28495 6.31128,5.945045 9.85691,14.00827 9.85691,22.41584 v 0 c 0,17.50786 -15.0672,31.70078 -33.65354,31.70078 v 0 c -18.58636,0 -33.65356,-14.19292 -33.65356,-31.70078 z"
       fill-opacity="0"
       fill="#000000" />
    <path
       id="path39"
       fill-rule="evenodd"
       d="m 308.15222,97.61155 v 0 c 0,-17.507866 15.0672,-31.70079 33.65356,-31.70079 v 0 c 8.92548,0 17.48539,3.339897 23.79663,9.28495 6.31128,5.945045 9.85691,14.00827 9.85691,22.41584 v 0 c 0,17.50786 -15.0672,31.70078 -33.65354,31.70078 v 0 c -18.58636,0 -33.65356,-14.19292 -33.65356,-31.70078 z"
       stroke-linecap="butt"
       stroke-linejoin="round"
       stroke-width="2"
       stroke="#000000" />
    <path
       id="path41"
       fill-rule="evenodd"
       d="m 183.8924,65.91076 h 929.5433 V 174.3517 H 183.8924 Z"
       fill-opacity="0"
       fill="#000000" />
    <path
       id="path43"
       fill-rule="evenodd"
       d="M 446.66858,40.343136 H 792.85895 V 390.39948 H 446.66858 Z"
       fill="#ffffff" />
    <path
       id="path45"
       fill-rule="evenodd"
       d="m 457.68973,46.15361 h 335.1614 v 339.6953 h -335.1614 z"
       fill-opacity="0"
       fill="#000000" />
    <path
       id="path47"
       fill-rule="evenodd"
       d="m 457.68973,46.15361 h 335.1614 v 339.6953 h -335.1614 z"
       stroke-linecap="butt"
       stroke-linejoin="round"
       stroke-width="2"
       stroke="#000000" />
    <path
       id="path49"
       fill-rule="evenodd"
       d="M 469.5857,111.94842 H 693.7995 V 348.69903 H 469.5857 Z"
       fill="#ffffff" />
    <path
       id="path51"
       fill-rule="evenodd"
       d="M 469.5857,111.94842 H 693.7995 V 348.69903 H 469.5857 Z"
       stroke-linecap="butt"
       stroke-linejoin="round"
       stroke-width="2"
       stroke="#000000" />
    <path
       id="path53"
       fill-rule="evenodd"
       d="M 724.6719,150.9634 H 770.699 V 348.70975 H 724.6719 Z"
       fill="#000000" />
    <path
       id="path55"
       fill-rule="evenodd"
       d="M 724.6719,150.9634 H 770.699 V 348.70975 H 724.6719 Z"
       stroke-linecap="butt"
       stroke-linejoin="round"
       stroke-width="2"
       stroke="#000000" />
    <path
       id="path57"
       fill-rule="evenodd"
       d="m 733.9016,81.14039 v 0 c 0,-8.42585 6.92981,-15.256348 15.47815,-15.256348 v 0 c 4.10504,0 8.04199,1.607361 10.9447,4.468475 2.90271,2.861122 4.53345,6.741638 4.53345,10.787872 v 0 c 0,8.425842 -6.92981,15.256348 -15.47815,15.256348 v 0 c -8.54834,0 -15.47815,-6.830505 -15.47815,-15.256347 z"
       fill="#ffffff" />
    <path
       id="path59"
       fill-rule="evenodd"
       d="m 733.9016,81.14039 v 0 c 0,-8.42585 6.92981,-15.256348 15.47815,-15.256348 v 0 c 4.10504,0 8.04199,1.607361 10.9447,4.468475 2.90271,2.861122 4.53345,6.741638 4.53345,10.787872 v 0 c 0,8.425842 -6.92981,15.256348 -15.47815,15.256348 v 0 c -8.54834,0 -15.47815,-6.830505 -15.47815,-15.256347 z"
       stroke-linecap="butt"
       stroke-linejoin="round"
       stroke-width="2"
       stroke="#000000" />
    <path
       id="path61"
       fill-rule="evenodd"
       d="m 484.02972,230.32394 v 0 c 0,-55.27986 43.7251,-100.09305 97.66272,-100.09305 v 0 c 25.90173,0 50.74268,10.54549 69.05798,29.31657 18.31531,18.77109 28.60474,44.23015 28.60474,70.77648 v 0 c 0,55.27987 -43.7251,100.09305 -97.66272,100.09305 v 0 c -53.93763,0 -97.66272,-44.81317 -97.66272,-100.09305 z"
       fill="#ffffff" />
    <path
       id="path63"
       fill-rule="evenodd"
       d="m 484.02972,230.32394 v 0 c 0,-55.27986 43.7251,-100.09305 97.66272,-100.09305 v 0 c 25.90173,0 50.74268,10.54549 69.05798,29.31657 18.31531,18.77109 28.60474,44.23015 28.60474,70.77648 v 0 c 0,55.27987 -43.7251,100.09305 -97.66272,100.09305 v 0 c -53.93763,0 -97.66272,-44.81317 -97.66272,-100.09305 z"
       stroke-linecap="butt"
       stroke-linejoin="round"
       stroke-width="2"
       stroke="#000000" />
    <path
       id="path65"
       fill-rule="evenodd"
       d="m 497.82376,194.7483 h 201.46658 v 71.10121 H 497.82376 Z"
       fill-opacity="0"
       fill="#000000" />
    <path
       id="path67"
       fill-rule="evenodd"
       d="m 493.3942,136.91644 h 176.99606 v 186.815 H 493.3942 Z"
       fill-opacity="0"
       fill="#000000" />
    <path
       id="path69"
       fill-rule="evenodd"
       d="m 493.3942,136.91644 h 176.99606 v 186.815 H 493.3942 Z"
       stroke-linecap="butt"
       stroke-linejoin="round"
       stroke-width="1"
       stroke="#000000" />
    <path
       id="path71"
       fill-rule="evenodd"
       d="m 470.25397,113.67552 23.34256,23.19345"
       fill-opacity="0"
       fill="#000000" />
    <path
       id="path73"
       fill-rule="evenodd"
       d="m 470.25397,113.67552 23.34256,23.19345"
       stroke-linecap="butt"
       stroke-linejoin="round"
       stroke-width="1"
       stroke="#000000" />
    <path
       id="path75"
       fill-rule="evenodd"
       d="m 670.5952,323.72885 22.96655,24.42917"
       fill-opacity="0"
       fill="#000000" />
    <path
       id="path77"
       fill-rule="evenodd"
       d="m 670.5952,323.72885 22.96655,24.42917"
       stroke-linecap="butt"
       stroke-linejoin="round"
       stroke-width="1"
       stroke="#000000" />
    <path
       id="path79"
       fill-rule="evenodd"
       d="m 693.53564,113.67552 -22.52789,23.19345"
       fill-opacity="0"
       fill="#000000" />
    <path
       id="path81"
       fill-rule="evenodd"
       d="m 693.53564,113.67552 -22.52789,23.19345"
       stroke-linecap="butt"
       stroke-linejoin="round"
       stroke-width="1"
       stroke="#000000" />
    <path
       id="path83"
       fill-rule="evenodd"
       d="m 493.18918,323.73413 -22.52789,23.19345"
       fill-opacity="0"
       fill="#000000" />
    <path
       id="path85"
       fill-rule="evenodd"
       d="m 493.18918,323.73413 -22.52789,23.19345"
       stroke-linecap="butt"
       stroke-linejoin="round"
       stroke-width="1"
       stroke="#000000" />
    <path
       id="path87"
       fill-rule="evenodd"
       d="m 507.53677,99.58888 h 25.81778 v 12.35716 h -25.81778 z"
       fill-opacity="0"
       fill="#000000" />
    <path
       id="path89"
       fill-rule="evenodd"
       d="m 507.53677,99.58888 h 25.81778 v 12.35716 h -25.81778 z"
       stroke-linecap="butt"
       stroke-linejoin="round"
       stroke-width="2"
       stroke="#000000" />
    <path
       id="path91"
       fill-rule="evenodd"
       d="m 632.0356,99.58888 h 25.81781 v 12.35716 H 632.0356 Z"
       fill-opacity="0"
       fill="#000000" />
    <path
       id="path93"
       fill-rule="evenodd"
       d="m 632.0356,99.58888 h 25.81781 v 12.35716 H 632.0356 Z"
       stroke-linecap="butt"
       stroke-linejoin="round"
       stroke-width="2"
       stroke="#000000" />
    <path
       id="path95"
       fill-rule="evenodd"
       d="m 536.34155,104.14625 h 91.77228 v 7.79452 h -91.77228 z"
       fill-opacity="0"
       fill="#000000" />
    <path
       id="path97"
       fill-rule="evenodd"
       d="m 536.34155,104.14625 h 91.77228 v 7.79452 h -91.77228 z"
       stroke-linecap="butt"
       stroke-linejoin="round"
       stroke-width="2"
       stroke="#000000" />
    <path
       id="path99"
       fill-rule="evenodd"
       d="M 54.209972,415.29398 H 402.20997 V 763.26246 H 54.209972 Z"
       fill="#ffffff" />
    <path
       id="path101"
       fill-rule="evenodd"
       d="m 65.28871,421.0698 h 336.9134 V 758.73908 H 65.28871 Z"
       fill-opacity="0"
       fill="#000000" />
    <path
       id="path103"
       fill-rule="evenodd"
       d="m 65.28871,421.0698 h 336.9134 V 758.73908 H 65.28871 Z"
       stroke-linecap="butt"
       stroke-linejoin="round"
       stroke-width="2"
       stroke="#000000" />
    <path
       id="path105"
       fill-rule="evenodd"
       d="m 128.61154,590.35956 52.56694,-52.5669 52.56692,52.5669 -52.56692,52.56696 z"
       fill-opacity="0"
       fill="#000000" />
    <path
       id="path107"
       fill-rule="evenodd"
       d="m 128.61154,590.35956 52.56694,-52.5669 52.56692,52.5669 -52.56692,52.56696 z"
       stroke-linecap="butt"
       stroke-linejoin="round"
       stroke-width="2"
       stroke="#000000" />
    <path
       id="path109"
       fill-rule="evenodd"
       d="m 181.47244,642.4724 52.56692,-52.5669 52.56693,52.5669 -52.56693,52.56696 z"
       fill-opacity="0"
       fill="#000000" />
    <path
       id="path111"
       fill-rule="evenodd"
       d="m 181.47244,642.4724 52.56692,-52.5669 52.56693,52.5669 -52.56693,52.56696 z"
       stroke-linecap="butt"
       stroke-linejoin="round"
       stroke-width="2"
       stroke="#000000" />
    <path
       id="path113"
       fill-rule="evenodd"
       d="m 233.7454,590.35956 52.56694,-52.5669 52.56693,52.5669 -52.56693,52.56696 z"
       fill-opacity="0"
       fill="#000000" />
    <path
       id="path115"
       fill-rule="evenodd"
       d="m 233.7454,590.35956 52.56694,-52.5669 52.56693,52.5669 -52.56693,52.56696 z"
       stroke-linecap="butt"
       stroke-linejoin="round"
       stroke-width="2"
       stroke="#000000" />
    <path
       id="path117"
       fill-rule="evenodd"
       d="m 181.47244,537.33856 52.56692,-52.56689 52.56693,52.56689 -52.56693,52.56696 z"
       fill-opacity="0"
       fill="#000000" />
    <path
       id="path119"
       fill-rule="evenodd"
       d="m 181.47244,537.33856 52.56692,-52.56689 52.56693,52.56689 -52.56693,52.56696 z"
       stroke-linecap="butt"
       stroke-linejoin="round"
       stroke-width="2"
       stroke="#000000" />
    <path
       id="path121"
       fill-rule="evenodd"
       d="m 342.9444,455.8479 v 0 c 0,-8.37561 6.96603,-15.16538 15.55908,-15.16538 v 0 c 4.1265,0 8.08402,1.59778 11.00189,4.44184 2.91791,2.84405 4.55716,6.70141 4.55716,10.72354 v 0 c 0,8.37558 -6.96603,15.16534 -15.55905,15.16534 v 0 c -8.59305,0 -15.55908,-6.78976 -15.55908,-15.16534 z"
       fill="#ffffff" />
    <path
       id="path123"
       fill-rule="evenodd"
       d="m 342.9444,455.8479 v 0 c 0,-8.37561 6.96603,-15.16538 15.55908,-15.16538 v 0 c 4.1265,0 8.08402,1.59778 11.00189,4.44184 2.91791,2.84405 4.55716,6.70141 4.55716,10.72354 v 0 c 0,8.37558 -6.96603,15.16534 -15.55905,15.16534 v 0 c -8.59305,0 -15.55908,-6.78976 -15.55908,-15.16534 z"
       stroke-linecap="butt"
       stroke-linejoin="round"
       stroke-width="2"
       stroke="#000000" />
    <path
       id="path125"
       fill-rule="evenodd"
       d="m 829.4068,419.04724 h 348.0001 v 347.9685 H 829.4068 Z"
       fill="#ffffff" />
    <path
       id="path127"
       fill-rule="evenodd"
       d="m 840.48553,424.82306 h 336.91337 v 337.6693 H 840.48553 Z"
       fill-opacity="0"
       fill="#000000" />
    <path
       id="path129"
       fill-rule="evenodd"
       d="m 840.48553,424.82306 h 336.91337 v 337.6693 H 840.48553 Z"
       stroke-linecap="butt"
       stroke-linejoin="round"
       stroke-width="2"
       stroke="#000000" />
    <path
       id="path131"
       fill-rule="evenodd"
       d="m 1118.1412,459.60117 v 0 c 0,-8.37558 6.9661,-15.16534 15.5591,-15.16534 v 0 c 4.1264,0 8.084,1.59777 11.0019,4.44183 2.9179,2.84405 4.5572,6.70142 4.5572,10.72351 v 0 c 0,8.37561 -6.9661,15.16534 -15.5591,15.16534 v 0 c -8.593,0 -15.5591,-6.78973 -15.5591,-15.16534 z"
       fill="#ffffff" />
    <path
       id="path133"
       fill-rule="evenodd"
       d="m 1118.1412,459.60117 v 0 c 0,-8.37558 6.9661,-15.16534 15.5591,-15.16534 v 0 c 4.1264,0 8.084,1.59777 11.0019,4.44183 2.9179,2.84405 4.5572,6.70142 4.5572,10.72351 v 0 c 0,8.37561 -6.9661,15.16534 -15.5591,15.16534 v 0 c -8.593,0 -15.5591,-6.78973 -15.5591,-15.16534 z"
       stroke-linecap="butt"
       stroke-linejoin="round"
       stroke-width="2"
       stroke="#000000" />
    <path
       id="path135"
       fill-rule="evenodd"
       d="m 882.43304,480.79266 h 29.1654 v 225.7323 h -29.1654 z"
       fill-opacity="0"
       fill="#000000" />
    <path
       id="path137"
       fill-rule="evenodd"
       d="m 882.43304,480.79266 h 29.1654 v 225.7323 h -29.1654 z"
       stroke-linecap="butt"
       stroke-linejoin="round"
       stroke-width="2"
       stroke="#000000" />
    <path
       id="path139"
       fill-rule="evenodd"
       d="m 1092.9763,525.6352 h 29.1654 v 178.20471 h -29.1654 z"
       fill-opacity="0"
       fill="#000000" />
    <path
       id="path141"
       fill-rule="evenodd"
       d="m 1092.9763,525.6352 h 29.1654 v 178.20471 h -29.1654 z"
       stroke-linecap="butt"
       stroke-linejoin="round"
       stroke-width="2"
       stroke="#000000" />
    <path
       id="path143"
       fill-rule="evenodd"
       d="m 897.0131,513.10205 c 10.84711,-2.32684 19.52801,12.0625 30.56696,13.16534 24.49322,2.44709 49.25921,-2.85345 73.83194,-1.40942 11.6878,0.68683 20.1348,12.745 31.5092,15.51965 25.0114,6.10132 50.6969,9.06037 76.1838,12.69556"
       fill-opacity="0"
       fill="#000000" />
    <path
       id="path145"
       fill-rule="evenodd"
       d="m 897.0131,513.10205 c 10.84711,-2.32684 19.52801,12.0625 30.56696,13.16534 24.49322,2.44709 49.25921,-2.85345 73.83194,-1.40942 11.6878,0.68683 20.1348,12.745 31.5092,15.51965 25.0114,6.10132 50.6969,9.06037 76.1838,12.69556"
       stroke-linecap="butt"
       stroke-linejoin="round"
       stroke-width="2"
       stroke="#000000" />
    <path
       id="path147"
       fill-rule="evenodd"
       d="m 900.7743,549.31165 c 24.46918,-11.12347 52.59796,13.95001 79.47504,13.63782 23.98266,-0.27857 49.30706,-7.90027 71.95286,0 18.9275,6.60315 43.6676,30.63415 57.8425,16.45929"
       fill-opacity="0"
       fill="#000000" />
    <path
       id="path149"
       fill-rule="evenodd"
       d="m 900.7743,549.31165 c 24.46918,-11.12347 52.59796,13.95001 79.47504,13.63782 23.98266,-0.27857 49.30706,-7.90027 71.95286,0 18.9275,6.60315 43.6676,30.63415 57.8425,16.45929"
       stroke-linecap="butt"
       stroke-linejoin="round"
       stroke-width="2"
       stroke="#000000" />
    <path
       id="path151"
       fill-rule="evenodd"
       d="m 897.4829,582.23114 c 13.5943,-1.78241 28.33264,-9.68384 40.91339,-4.23358 8.54523,3.70196 7.23016,21.3305 16.45935,22.57483 30.32599,4.08856 61.21616,-1.60498 91.70346,-4.23358 21.8703,-1.88568 43.4159,7.99475 65.3674,7.99475"
       fill-opacity="0"
       fill="#000000" />
    <path
       id="path153"
       fill-rule="evenodd"
       d="m 897.4829,582.23114 c 13.5943,-1.78241 28.33264,-9.68384 40.91339,-4.23358 8.54523,3.70196 7.23016,21.3305 16.45935,22.57483 30.32599,4.08856 61.21616,-1.60498 91.70346,-4.23358 21.8703,-1.88568 43.4159,7.99475 65.3674,7.99475"
       stroke-linecap="butt"
       stroke-linejoin="round"
       stroke-width="2"
       stroke="#000000" />
    <path
       id="path155"
       fill-rule="evenodd"
       d="m 896.5407,609.50684 c 14.41009,-0.97375 29.28052,-5.96173 43.26508,-2.35168 11.1842,2.88714 21.44329,9.5205 32.92126,10.81628 22.41309,2.53021 45.28646,2.3772 67.24666,7.5249 11.8427,2.77606 21.6269,5.82349 29.1575,6.11286 13.7923,0.52996 29.0403,-7.58667 41.3832,-1.40943"
       fill-opacity="0"
       fill="#000000" />
    <path
       id="path157"
       fill-rule="evenodd"
       d="m 896.5407,609.50684 c 14.41009,-0.97375 29.28052,-5.96173 43.26508,-2.35168 11.1842,2.88714 21.44329,9.5205 32.92126,10.81628 22.41309,2.53021 45.28646,2.3772 67.24666,7.5249 11.8427,2.77606 21.6269,5.82349 29.1575,6.11286 13.7923,0.52996 29.0403,-7.58667 41.3832,-1.40943"
       stroke-linecap="butt"
       stroke-linejoin="round"
       stroke-width="2"
       stroke="#000000" />
    <path
       id="path159"
       fill-rule="evenodd"
       d="m 896.5407,681.4593 c 9.02869,12.40344 31.70154,12.57263 45.61676,6.11292 10.12317,-4.69941 17.9967,-16.45935 29.15747,-16.45935 9.07165,0 18.35089,1.4132 26.80579,4.7008 6.32168,2.45813 4.52398,16.40192 11.28608,16.93176 32.746,2.5658 66.4223,0.91828 98.2861,-7.05511"
       fill-opacity="0"
       fill="#000000" />
    <path
       id="path161"
       fill-rule="evenodd"
       d="m 896.5407,681.4593 c 9.02869,12.40344 31.70154,12.57263 45.61676,6.11292 10.12317,-4.69941 17.9967,-16.45935 29.15747,-16.45935 9.07165,0 18.35089,1.4132 26.80579,4.7008 6.32168,2.45813 4.52398,16.40192 11.28608,16.93176 32.746,2.5658 66.4223,0.91828 98.2861,-7.05511"
       stroke-linecap="butt"
       stroke-linejoin="round"
       stroke-width="2"
       stroke="#000000" />
    <path
       id="path163"
       fill-rule="evenodd"
       d="m 901.7139,646.66 c 46.12604,-8.5426 94.6983,5.85767 139.2021,20.69025 8.9125,2.97046 16.0248,-11.53241 25.3937,-12.22571 14.257,-1.05499 28.4992,2.82153 42.7953,2.82153"
       fill-opacity="0"
       fill="#000000" />
    <path
       id="path165"
       fill-rule="evenodd"
       d="m 901.7139,646.66 c 46.12604,-8.5426 94.6983,5.85767 139.2021,20.69025 8.9125,2.97046 16.0248,-11.53241 25.3937,-12.22571 14.257,-1.05499 28.4992,2.82153 42.7953,2.82153"
       stroke-linecap="butt"
       stroke-linejoin="round"
       stroke-width="2"
       stroke="#000000" />
  </g>
  <g
     style="font-size:42px;font-family:'DejaVu Sans', sans-serif;text-anchor:middle;fill:#000000"
     id="text171"
     aria-label="[ TEXT ]">
    <path
       id="path181"
       d="m 502.83984,216.08984 h 8.69532 v 2.93262 h -4.92188 v 31.58203 h 4.92188 v 2.93262 h -8.69532 z" />
    <path
       id="path183"
       d="m 528.88477,217.38184 h 25.90136 v 3.48632 H 543.91699 V 248 h -4.16308 v -27.13184 h -10.86914 z" />
    <path
       id="path185"
       d="m 558.80566,217.38184 h 19.35938 v 3.48632 h -15.2168 v 9.06446 h 14.58106 v 3.48633 h -14.58106 v 11.09472 h 15.58594 V 248 h -19.72852 z" />
    <path
       id="path187"
       d="m 583.90723,217.38184 h 4.45019 l 7.6084,11.38183 7.64941,-11.38183 h 4.4502 l -9.84375,14.7041 10.5,15.91406 h -4.4502 L 595.6582,234.97754 586.9834,248 h -4.4707 l 10.93066,-16.34473 z" />
    <path
       id="path189"
       d="m 609.19336,217.38184 h 25.90137 v 3.48632 H 624.22559 V 248 h -4.16309 v -27.13184 h -10.86914 z" />
    <path
       id="path191"
       d="m 661.13965,216.08984 v 37.44727 h -8.69531 v -2.93262 h 4.90136 v -31.58203 h -4.90136 v -2.93262 z" />
  </g>
</svg>
