<?xml version="1.0" encoding="UTF-8" standalone="no"?>
<svg
   xmlns:dc="http://purl.org/dc/elements/1.1/"
   xmlns:cc="http://creativecommons.org/ns#"
   xmlns:rdf="http://www.w3.org/1999/02/22-rdf-syntax-ns#"
   xmlns:svg="http://www.w3.org/2000/svg"
   xmlns="http://www.w3.org/2000/svg"
   id="svg97"
   stroke-miterlimit="10"
   stroke-linecap="square"
   stroke="none"
   fill="none"
   viewBox="0.0 0.0 369.0 801.0"
   version="1.1">
  <metadata
     id="metadata103">
    <rdf:RDF>
      <cc:Work
         rdf:about="">
        <dc:format>image/svg+xml</dc:format>
        <dc:type
           rdf:resource="http://purl.org/dc/dcmitype/StillImage" />
      </cc:Work>
    </rdf:RDF>
  </metadata>
  <defs
     id="defs101" />
  <clipPath
     id="p.0">
    <path
       id="path2"
       clip-rule="nonzero"
       d="m0 0l369.0 0l0 801.0l-369.0 0l0 -801.0z" />
  </clipPath>
  <g
     id="g91"
     clip-path="url(#p.0)">
    <path
       id="path5"
       fill-rule="nonzero"
       d="M 0,0 H 369.1076 V 801.916 H 0 Z"
       fill-opacity="0"
       fill="#000000" />
    <path
       id="path7"
       fill-rule="nonzero"
       d="m 248.5753,444.2651 h 101.4803 v 67.55905 H 248.5753 Z"
       fill="#000000" />
    <path
       id="path9"
       fill-rule="nonzero"
       d="m 248.5753,444.2651 h 101.4803 v 67.55905 H 248.5753 Z"
       stroke-linecap="butt"
       stroke-linejoin="round"
       stroke-width="2"
       stroke="#000000" />
    <path
       id="path11"
       fill-rule="nonzero"
       d="m 289.4047,109.25535 h 67.3071 v 208.0315 h -67.3071 z"
       fill="#ffffff" />
    <path
       id="path13"
       fill-rule="nonzero"
       d="m 289.4047,109.25535 h 67.3071 v 208.0315 h -67.3071 z"
       stroke-linecap="butt"
       stroke-linejoin="round"
       stroke-width="2"
       stroke="#000000" />
    <path
       id="path15"
       fill-rule="nonzero"
       d="M 5.589649,165.38321 H 53.306183 V 273.09973 H 5.589649 Z"
       fill="#ffffff" />
    <path
       id="path17"
       fill-rule="nonzero"
       d="M 5.589649,165.38321 H 53.306183 V 273.09973 H 5.589649 Z"
       stroke-linecap="butt"
       stroke-linejoin="round"
       stroke-width="2"
       stroke="#000000" />
    <path
       id="path19"
       fill-rule="nonzero"
       d="m 278.36172,66.32809 h 68.82806 v 0 c 9.01667,0 16.32611,7.042313 16.32611,15.729446 0,8.687134 -7.30944,15.729446 -16.32611,15.729446 h -68.82806 v 0 c -9.01666,0 -16.32614,-7.042313 -16.32614,-15.729446 0,-8.687134 7.30948,-15.729446 16.32614,-15.729446 z"
       fill="#ffffff" />
    <path
       id="path21"
       fill-rule="nonzero"
       d="m 278.36172,66.32809 h 68.82806 v 0 c 9.01667,0 16.32611,7.042313 16.32611,15.729446 0,8.687134 -7.30944,15.729446 -16.32611,15.729446 h -68.82806 v 0 c -9.01666,0 -16.32614,-7.042313 -16.32614,-15.729446 0,-8.687134 7.30948,-15.729446 16.32614,-15.729446 z"
       stroke-linecap="butt"
       stroke-linejoin="round"
       stroke-width="2"
       stroke="#000000" />
    <path
       id="path23"
       fill-rule="nonzero"
       d="m 12.574803,486.2047 h 67.30708 v 208.0315 h -67.30708 z"
       fill="#ffffff" />
    <path
       id="path25"
       fill-rule="nonzero"
       d="m 12.574803,486.2047 h 67.30708 v 208.0315 h -67.30708 z"
       stroke-linecap="butt"
       stroke-linejoin="round"
       stroke-width="2"
       stroke="#000000" />
    <path
       id="path27"
       fill-rule="nonzero"
       d="m 243.86876,46.650917 h 92.15749 V 384.32022 h -92.15749 z"
       fill="#ffffff" />
    <path
       id="path29"
       fill-rule="nonzero"
       d="m 243.86876,46.650917 h 92.15749 V 384.32022 h -92.15749 z"
       stroke-linecap="butt"
       stroke-linejoin="round"
       stroke-width="2"
       stroke="#000000" />
    <path
       id="path31"
       fill-rule="nonzero"
       d="M 22.658957,122.89764 H 101.74557 V 304.53543 H 22.658957 Z"
       fill="#000000" />
    <path
       id="path33"
       fill-rule="nonzero"
       d="M 22.658957,122.89764 H 101.74557 V 304.53543 H 22.658957 Z"
       stroke-linecap="butt"
       stroke-linejoin="round"
       stroke-width="2"
       stroke="#000000" />
    <path
       id="path35"
       fill-rule="nonzero"
       d="m 22.689058,66.32809 h 68.82809 v 0 c 9.016662,0 16.326122,7.042313 16.326122,15.729446 0,8.687134 -7.30946,15.729446 -16.326122,15.729446 h -68.82809 v 0 c -9.016665,0 -16.326115,-7.042313 -16.326115,-15.729446 0,-8.687134 7.309451,-15.729446 16.326115,-15.729446 z"
       fill="#ffffff" />
    <path
       id="path37"
       fill-rule="nonzero"
       d="m 22.689058,66.32809 h 68.82809 v 0 c 9.016662,0 16.326122,7.042313 16.326122,15.729446 0,8.687134 -7.30946,15.729446 -16.326122,15.729446 h -68.82809 v 0 c -9.016665,0 -16.326115,-7.042313 -16.326115,-15.729446 0,-8.687134 7.309451,-15.729446 16.326115,-15.729446 z"
       stroke-linecap="butt"
       stroke-linejoin="round"
       stroke-width="2"
       stroke="#000000" />
    <path
       id="path39"
       fill-rule="nonzero"
       d="m 22.689058,443.84253 h 68.82809 v 0 c 9.016662,0 16.326122,7.0423 16.326122,15.72943 0,8.68713 -7.30946,15.72946 -16.326122,15.72946 h -68.82809 v 0 c -9.016665,0 -16.326115,-7.04233 -16.326115,-15.72946 0,-8.68713 7.309451,-15.72943 16.326115,-15.72943 z"
       fill="#ffffff" />
    <path
       id="path41"
       fill-rule="nonzero"
       d="m 22.689058,443.84253 h 68.82809 v 0 c 9.016662,0 16.326122,7.0423 16.326122,15.72943 0,8.68713 -7.30946,15.72946 -16.326122,15.72946 h -68.82809 v 0 c -9.016665,0 -16.326115,-7.04233 -16.326115,-15.72946 0,-8.68713 7.309451,-15.72943 16.326115,-15.72943 z"
       stroke-linecap="butt"
       stroke-linejoin="round"
       stroke-width="2"
       stroke="#000000" />
    <path
       id="path43"
       fill-rule="nonzero"
       d="M 31.853674,46.650917 H 86.814306 V 384.32022 H 31.853674 Z"
       fill="#ffffff" />
    <path
       id="path45"
       fill-rule="nonzero"
       d="M 31.853674,46.650917 H 86.814306 V 384.32022 H 31.853674 Z"
       stroke-linecap="butt"
       stroke-linejoin="round"
       stroke-width="2"
       stroke="#000000" />
    <path
       id="path47"
       fill-rule="nonzero"
       d="m 278.36368,443.84253 h 68.82809 v 0 c 9.01667,0 16.32611,7.0423 16.32611,15.72943 0,8.68713 -7.30944,15.72946 -16.32611,15.72946 h -68.82809 v 0 c -9.01666,0 -16.32611,-7.04233 -16.32611,-15.72946 0,-8.68713 7.30945,-15.72943 16.32611,-15.72943 z"
       fill="#ffffff" />
    <path
       id="path49"
       fill-rule="nonzero"
       d="m 278.36368,443.84253 h 68.82809 v 0 c 9.01667,0 16.32611,7.0423 16.32611,15.72943 0,8.68713 -7.30944,15.72946 -16.32611,15.72946 h -68.82809 v 0 c -9.01666,0 -16.32611,-7.04233 -16.32611,-15.72946 0,-8.68713 7.30945,-15.72943 16.32611,-15.72943 z"
       stroke-linecap="butt"
       stroke-linejoin="round"
       stroke-width="2"
       stroke="#000000" />
    <path
       id="path51"
       fill-rule="nonzero"
       d="M 251.84662,615.33795 H 358.49228 V 660.1568 H 251.84662 Z"
       fill="#ffffff" />
    <path
       id="path53"
       fill-rule="nonzero"
       d="M 251.84662,615.33795 H 358.49228 V 660.1568 H 251.84662 Z"
       stroke-linecap="butt"
       stroke-linejoin="round"
       stroke-width="2"
       stroke="#000000" />
    <path
       id="path55"
       fill-rule="nonzero"
       d="m 251.84662,544.1022 h 106.64566 v 44.81891 H 251.84662 Z"
       fill="#ffffff" />
    <path
       id="path57"
       fill-rule="nonzero"
       d="m 251.84662,544.1022 h 106.64566 v 44.81891 H 251.84662 Z"
       stroke-linecap="butt"
       stroke-linejoin="round"
       stroke-width="2"
       stroke="#000000" />
    <path
       id="path59"
       fill-rule="nonzero"
       d="m 251.84662,689.47974 h 106.64566 v 44.81891 H 251.84662 Z"
       fill="#ffffff" />
    <path
       id="path61"
       fill-rule="nonzero"
       d="m 251.84662,689.47974 h 106.64566 v 44.81891 H 251.84662 Z"
       stroke-linecap="butt"
       stroke-linejoin="round"
       stroke-width="2"
       stroke="#000000" />
    <path
       id="path63"
       fill-rule="nonzero"
       d="m 6.361959,517.22833 h 24.88189"
       fill-opacity="0"
       fill="#000000" />
    <path
       id="path65"
       fill-rule="nonzero"
       d="m 6.361959,517.22833 h 24.88189"
       stroke-linecap="butt"
       stroke-linejoin="round"
       stroke-width="2"
       stroke="#000000" />
    <path
       id="path67"
       fill-rule="nonzero"
       d="m 6.361959,569.0379 h 24.88189"
       fill-opacity="0"
       fill="#000000" />
    <path
       id="path69"
       fill-rule="nonzero"
       d="m 6.361959,569.0379 h 24.88189"
       stroke-linecap="butt"
       stroke-linejoin="round"
       stroke-width="2"
       stroke="#000000" />
    <path
       id="path71"
       fill-rule="nonzero"
       d="m 6.361959,616.8954 h 24.88189"
       fill-opacity="0"
       fill="#000000" />
    <path
       id="path73"
       fill-rule="nonzero"
       d="m 6.361959,616.8954 h 24.88189"
       stroke-linecap="butt"
       stroke-linejoin="round"
       stroke-width="2"
       stroke="#000000" />
    <path
       id="path75"
       fill-rule="nonzero"
       d="M 6.361959,673.9764 H 31.999753"
       fill-opacity="0"
       fill="#000000" />
    <path
       id="path77"
       fill-rule="nonzero"
       d="M 6.361959,673.9764 H 31.999753"
       stroke-linecap="butt"
       stroke-linejoin="round"
       stroke-width="2"
       stroke="#000000" />
    <path
       id="path79"
       fill-rule="nonzero"
       d="m 31.85023,423.8084 h 304.1575 V 761.47765 H 31.85023 Z"
       fill="#ffffff" />
    <path
       id="path81"
       fill-rule="nonzero"
       d="m 31.85023,423.8084 h 304.1575 V 761.47765 H 31.85023 Z"
       stroke-linecap="butt"
       stroke-linejoin="round"
       stroke-width="2"
       stroke="#000000" />
    <path
       id="path83"
       fill-rule="nonzero"
       d="M 56.01132,0.9422572 H 312.60974 V 800.97376 H 56.01132 Z"
       fill="#ffffff" />
    <path
       id="path85"
       fill-rule="nonzero"
       d="M 56.01132,0.9422572 H 312.60974 V 800.97376 H 56.01132 Z"
       stroke-linecap="butt"
       stroke-linejoin="round"
       stroke-width="2"
       stroke="#000000" />
    <path
       id="path87"
       fill-rule="nonzero"
       d="M 289.4042,31.199474 V 346.85303 H 221.84513 V 31.199474 Z"
       fill-opacity="0"
       fill="#000000" />
    <path
       id="path89"
       fill-rule="nonzero"
       d="M 289.4042,31.199474 V 386.85303 H 221.84513 V 31.199474 Z"
       stroke-linecap="butt"
       stroke-linejoin="round"
       stroke-width="2"
       stroke="#000000" />
  </g>
  <g
     style="font-size:30px;font-family:'DejaVu Sans', sans-serif;text-anchor:middle;fill:#000000"
     id="text95"
     transform="rotate(90)"
     aria-label="[SERIAL NUMBER]">
    <path
       id="path105"
       d="m 79.251953,-267.79297 h 6.210938 v 2.09473 h -3.515625 v 22.55859 h 3.515625 v 2.09473 h -6.210938 z" />
    <path
       id="path107"
       d="m 104.44727,-266.15234 v 2.88574 q -1.68457,-0.80567 -3.17872,-1.20117 -1.494136,-0.39551 -2.885738,-0.39551 -2.416992,0 -3.735351,0.9375 -1.303711,0.9375 -1.303711,2.66601 0,1.4502 0.864258,2.19727 0.878906,0.73242 3.310547,1.18652 l 1.787109,0.36621 q 3.310546,0.62989 4.877926,2.22657 1.58204,1.58203 1.58204,4.24804 0,3.17871 -2.13868,4.81934 -2.12402,1.64062 -6.240231,1.64062 -1.552735,0 -3.310547,-0.35156 -1.743164,-0.35156 -3.618164,-1.04004 v -3.04687 q 1.801758,1.01074 3.530273,1.52344 1.728516,0.51269 3.398438,0.51269 2.534179,0 3.911131,-0.99609 1.37695,-0.9961 1.37695,-2.8418 0,-1.61133 -0.99609,-2.51953 -0.98144,-0.9082 -3.237304,-1.36231 l -1.801758,-0.35156 q -3.310546,-0.65918 -4.790039,-2.06543 -1.479492,-1.40625 -1.479492,-3.91113 0,-2.90039 2.036133,-4.57031 2.050781,-1.66992 5.639648,-1.66992 1.538086,0 3.134762,0.27832 1.59668,0.27832 3.26661,0.83496 z" />
    <path
       id="path109"
       d="m 110.37988,-266.87012 h 13.82813 v 2.49024 h -10.86914 v 6.47461 h 10.41504 v 2.49023 h -10.41504 v 7.92481 h 11.13281 V -245 h -14.0918 z" />
    <path
       id="path111"
       d="m 139.73535,-255.25391 q 0.95215,0.32227 1.8457,1.37696 0.90821,1.05468 1.81641,2.90039 L 146.40039,-245 h -3.17871 l -2.79785,-5.61035 q -1.08399,-2.19727 -2.10938,-2.91504 -1.01074,-0.71777 -2.76855,-0.71777 h -3.22266 V -245 h -2.95898 v -21.87012 h 6.67969 q 3.75,0 5.5957,1.56739 1.8457,1.56738 1.8457,4.73144 0,2.06543 -0.9668,3.42774 -0.95214,1.3623 -2.7832,1.88964 z m -7.41211,-9.18457 v 7.76368 h 3.72071 q 2.13867,0 3.22265,-0.98145 1.09863,-0.99609 1.09863,-2.91504 0,-1.91894 -1.09863,-2.88574 -1.08398,-0.98145 -3.22265,-0.98145 z" />
    <path
       id="path113"
       d="m 150.22363,-266.87012 h 2.95899 V -245 h -2.95899 z" />
    <path
       id="path115"
       d="m 166.38086,-263.95508 -4.01367,10.88379 h 8.04199 z m -1.66992,-2.91504 h 3.35449 L 176.40039,-245 h -3.07617 l -1.99219,-5.61035 h -9.8584 L 159.48145,-245 h -3.12012 z" />
    <path
       id="path117"
       d="m 179.5791,-266.87012 h 2.95899 v 19.37989 H 193.1875 V -245 h -13.6084 z" />
    <path
       id="path119"
       d="m 205.8291,-266.87012 h 3.98438 l 9.69726,18.2959 v -18.2959 h 2.8711 V -245 h -3.98438 l -9.69726,-18.2959 V -245 h -2.8711 z" />
    <path
       id="path121"
       d="m 227.93359,-266.87012 h 2.97364 v 13.28614 q 0,3.51562 1.27441,5.06836 1.27441,1.53808 4.13086,1.53808 2.8418,0 4.11621,-1.53808 1.27441,-1.55274 1.27441,-5.06836 v -13.28614 h 2.97364 v 13.65235 q 0,4.27734 -2.12403,6.45996 -2.10937,2.18261 -6.24023,2.18261 -4.14551,0 -6.26953,-2.18261 -2.10938,-2.18262 -2.10938,-6.45996 z" />
    <path
       id="path123"
       d="m 250.24316,-266.87012 h 4.40918 l 5.58106,14.88282 5.61035,-14.88282 h 4.40918 V -245 h -2.88574 v -19.2041 l -5.63965,15 h -2.97363 l -5.63965,-15 V -245 h -2.8711 z" />
    <path
       id="path125"
       d="m 279.10059,-255.44434 v 8.0127 h 4.74609 q 2.38769,0 3.53027,-0.98145 1.15723,-0.99609 1.15723,-3.03222 0,-2.05078 -1.15723,-3.01758 -1.14258,-0.98145 -3.53027,-0.98145 z m 0,-8.99414 v 6.5918 h 4.37988 q 2.16797,0 3.22265,-0.80566 1.06934,-0.82032 1.06934,-2.49024 0,-1.65527 -1.06934,-2.47558 -1.05468,-0.82032 -3.22265,-0.82032 z m -2.95899,-2.43164 h 7.5586 q 3.38378,0 5.21484,1.40625 1.83105,1.40625 1.83105,3.99903 0,2.00683 -0.9375,3.19336 -0.9375,1.18652 -2.7539,1.47949 2.18261,0.46875 3.38379,1.96289 1.21582,1.47949 1.21582,3.70605 0,2.92969 -1.99219,4.52637 Q 287.66992,-245 283.99316,-245 h -7.85156 z" />
    <path
       id="path127"
       d="m 296.70801,-266.87012 h 13.82812 v 2.49024 h -10.86914 v 6.47461 h 10.41504 v 2.49023 h -10.41504 v 7.92481 H 310.7998 V -245 h -14.09179 z" />
    <path
       id="path129"
       d="m 326.06348,-255.25391 q 0.95214,0.32227 1.8457,1.37696 0.9082,1.05468 1.81641,2.90039 L 332.72852,-245 h -3.17872 l -2.79785,-5.61035 q -1.08398,-2.19727 -2.10937,-2.91504 -1.01074,-0.71777 -2.76856,-0.71777 h -3.22265 V -245 h -2.95899 v -21.87012 h 6.67969 q 3.75,0 5.5957,1.56739 1.84571,1.56738 1.84571,4.73144 0,2.06543 -0.9668,3.42774 -0.95215,1.3623 -2.7832,1.88964 z m -7.41211,-9.18457 v 7.76368 h 3.7207 q 2.13867,0 3.22266,-0.98145 1.09863,-0.99609 1.09863,-2.91504 0,-1.91894 -1.09863,-2.88574 -1.08399,-0.98145 -3.22266,-0.98145 z" />
    <path
       id="path131"
       d="m 342.7334,-267.79297 v 26.74805 h -6.21094 v -2.09473 h 3.50098 v -22.55859 h -3.50098 v -2.09473 z" />
  </g>
</svg>
