<?xml version="1.0" encoding="UTF-8" standalone="no"?>
<svg
   xmlns:dc="http://purl.org/dc/elements/1.1/"
   xmlns:cc="http://creativecommons.org/ns#"
   xmlns:rdf="http://www.w3.org/1999/02/22-rdf-syntax-ns#"
   xmlns:svg="http://www.w3.org/2000/svg"
   xmlns="http://www.w3.org/2000/svg"
   id="svg25"
   stroke-miterlimit="10"
   stroke-linecap="square"
   stroke="none"
   fill="none"
   viewBox="0.0 0.0 288.0 115.0"
   version="1.1">
  <metadata
     id="metadata31">
    <rdf:RDF>
      <cc:Work
         rdf:about="">
        <dc:format>image/svg+xml</dc:format>
        <dc:type
           rdf:resource="http://purl.org/dc/dcmitype/StillImage" />
      </cc:Work>
    </rdf:RDF>
  </metadata>
  <defs
     id="defs29" />
  <clipPath
     id="p.0">
    <path
       id="path2"
       clip-rule="nonzero"
       d="m0 0l288.0 0l0 115.0l-288.0 0l0 -115.0z" />
  </clipPath>
  <g
     id="g19"
     clip-path="url(#p.0)">
    <path
       id="path5"
       fill-rule="nonzero"
       d="M 0,0 H 288 V 115 H 0 Z"
       fill-opacity="0"
       fill="#000000" />
    <path
       id="path7"
       fill-rule="nonzero"
       d="M 12,8.503937 H 276 V 107.49607 H 12 Z"
       fill="#ff0000" />
    <path
       id="path9"
       fill-rule="nonzero"
       d="M 12,8.503937 H 276 V 107.49607 H 12 Z"
       stroke-linecap="butt"
       stroke-linejoin="round"
       stroke-width="2"
       stroke="#000000" />
    <path
       id="path11"
       fill-rule="nonzero"
       d="M 114,32 H 259.00787 V 85.984253 H 114 Z"
       fill="#000000" />
    <path
       id="path13"
       fill-rule="nonzero"
       d="M 114,32 H 259.00787 V 85.984253 H 114 Z"
       stroke-linecap="butt"
       stroke-linejoin="round"
       stroke-width="2"
       stroke="#000000" />
    <path
       id="path15"
       fill-rule="nonzero"
       d="m 36,58 v 0 C 36,43.092659 48.084785,31.007874 62.992126,31.007874 v 0 c 7.15876,0 14.024307,2.843807 19.086311,7.905811 C 87.140449,43.975689 89.984252,50.841244 89.984252,58 v 0 c 0,14.907341 -12.084785,26.992126 -26.992126,26.992126 v 0 C 48.084785,84.992126 36,72.907341 36,58 Z"
       fill="#ffffff" />
    <path
       id="path17"
       fill-rule="nonzero"
       d="m 36,58 v 0 C 36,43.092659 48.084785,31.007874 62.992126,31.007874 v 0 c 7.15876,0 14.024307,2.843807 19.086311,7.905811 C 87.140449,43.975689 89.984252,50.841244 89.984252,58 v 0 c 0,14.907341 -12.084785,26.992126 -26.992126,26.992126 v 0 C 48.084785,84.992126 36,72.907341 36,58 Z"
       stroke-linecap="butt"
       stroke-linejoin="round"
       stroke-width="2"
       stroke="#000000" />
  </g>
  <g
     style="font-size:32px;font-family:'DejaVu Sans', sans-serif;text-anchor:middle;fill:#ffffff"
     id="text23"
     aria-label="[TXT]">
    <path
       id="path33"
       d="m 147,45.6875 h 6.625 v 2.234375 h -3.75 v 24.0625 h 3.75 V 74.21875 H 147 Z" />
    <path
       id="path35"
       d="m 156.65625,46.671875 h 19.73437 v 2.65625 h -8.28125 V 70 H 164.9375 V 49.328125 h -8.28125 z" />
    <path
       id="path37"
       d="m 178.32812,46.671875 h 3.39063 l 5.79687,8.671875 5.82813,-8.671875 h 3.39062 l -7.5,11.203125 8,12.125 h -3.39062 L 187.28125,60.078125 180.67187,70 h -3.40625 l 8.32813,-12.453125 z" />
    <path
       id="path39"
       d="m 197.59375,46.671875 h 19.73437 v 2.65625 h -8.28125 V 70 H 205.875 V 49.328125 h -8.28125 z" />
    <path
       id="path41"
       d="m 226.98437,45.6875 v 28.53125 h -6.625 v -2.234375 h 3.73438 v -24.0625 h -3.73438 V 45.6875 Z" />
  </g>
</svg>
