<svg version="1" xmlns="http://www.w3.org/2000/svg" width="533.333" height="533.333" viewBox="0 0 400.000000 400.000000"><path d="M73.5 5.8C60.6 13.2 50 23.3 48.1 30.2c-.7 2.6-1.1 6.2-.7 8.1.6 3 .3 3.5-2.1 4.6-11.8 5.4-30.3 21-39.5 33.4L0 84.2V132h8.3c8.7 0 20.6-1.8 29.7-4.5 13.1-3.9 31.7-15.6 42.6-26.5 5.3-5.5 7.4-6.9 8.9-6.5 10.1 3.1 15 2.2 25.5-4.6 7.6-4.8 26-23.3 26-26.1 0-2.4.2-2.4-8.5 3.3-15.4 10.2-30.7 16.2-32 12.6-.6-1.4 4-10 7.3-14 1.4-1.6 1-2.2-1.2-1.8-1.3.3-3.5-3.2-3.6-5.5 0-2.4 2.9-5.4 5.2-5.4.8 0 2.7.9 4 2 2.4 1.8 2.6 1.8 4.1.2 4-4.4 5.9-13 4-18.3-.7-2.3-1.2-4.8-.9-5.5.3-.8.2-1.3-.2-1.3-2.7.4-4.2-.4-4.8-2.6-.7-2.9-3.8-4-8.9-3.1-3 .6-3.3.9-2.3 2.5 2.2 3.5-1.6 7.6-4.7 5.1-2-1.6-1.9-3.9.2-6.2 1.5-1.7 1.5-1.8-.8-1.8-3 0-10.9 3-10.9 4.1 0 .5-1.2.9-2.7.9-1.6 0-6.2 1.2-10.3 2.5-9.9 3.3-10.4 3.3-9.6-.7 1.1-5.4 7.1-12.8 20.4-25.1L91.1 0h-3.8c-2.7.1-6.6 1.7-13.8 5.8zM86.8 36c1.8 2.6 3.2 3.7 4.2 3.3.8-.3 2.5-.5 3.8-.4 1.3 0 2.2-.5 2.2-1.4 0-.8.6-1.5 1.4-1.5.8 0 2.3-.3 3.3-.6 1.2-.4.8.3-1.2 2.2-1.6 1.5-3 3.4-3 4.3-.4 5.3-.4 5.3-4.4 5-2.1-.2-4.6.2-5.4.9-1.2 1.1-2.1.5-5-3.5-1.9-2.7-4.5-5.7-5.6-6.7-1.2-1.1-2.1-2.2-2.1-2.7 0-.6 5.3-2.4 8.3-2.8.4-.1 2 1.7 3.5 3.9zm-9.5 6.4c3.1 4.1 5.7 7.9 5.7 8.4s-1.1 1.7-2.5 2.6c-1.4.9-2.5 2.5-2.5 3.6 0 2.1-3.4 4.5-5 3.5-1.3-.8-7 3.5-7 5.3 0 1.2.3 1.2 1.5.2.9-.8 2.8-1 5-.6 2.9.6 4.1.2 7-2.1 2.5-2 3.5-3.6 3.5-5.5 0-3.6 2.9-5.2 5.8-3.2 2.8 2 2.8 4.9 0 6.9-2.2 1.5-2.2 1.5 1.2.9 1.9-.4 4-1.3 4.7-2.1.9-1.1 1.6-1.2 3.2-.3 2.5 1.3 2.7 4.8.4 6.5-1.7 1.3-1.7 1.4 0 3.2 2.2 2.5 2.2 2.4-1.5 8-14.4 21.6-36 39-57.4 46.3-3.1 1.1-5.8 2-5.9 2 0 0-1.9-2.4-4-5.2-2.2-2.9-8.9-11.6-14.9-19.3-6-7.7-11.1-14.6-11.3-15.2-.7-1.7 7.3-12.7 14.3-19.6 12.8-12.9 25.8-20.8 48.9-30 2.2-.9 4.2-1.6 4.5-1.6.3-.1 3.1 3.2 6.3 7.3zm30.2 2.9c-.4 1.4-1.5 3.3-2.4 4.1-1.6 1.5-1.9 1.5-3.4-.2-1.6-1.8-1.5-2 2-4.5 2-1.5 3.9-2.5 4-2.3.2.2.1 1.5-.2 2.9zm-8.1 6.9c2.7 3.8 2.1 5.1-1.9 4.5-2.3-.4-3.3-.2-2.9.4.3.6-.3.5-1.5-.2-2-1.3-2-1.4.6-4.1 3.2-3.4 3.7-3.4 5.7-.6zm3.2 15.5c-1 1-1.9-.5-1-1.8.6-1.1.8-1.1 1.2 0 .2.7.1 1.5-.2 1.8z"/><path d="M88.1 42.6c0 1.1.3 1.4.6.6.3-.7.2-1.6-.1-1.9-.3-.4-.6.2-.5 1.3zM72 45.5c0 .8-.9 2.4-1.9 3.4-1.1 1.1-1.6 2.2-1.3 2.6.4.4-.2 1.3-1.3 2.1-1.9 1.4-1.9 1.4.2 3.5l2.1 2.1-.5-2.6c-.7-3.2 1.2-5.6 4.3-5.6 2.8 0 2.9-.2.9-4-1.7-3.3-2.5-3.8-2.5-1.5zM64 50c0 .5.7 1 1.6 1 .8 0 1.2-.5.9-1-.3-.6-1-1-1.6-1-.5 0-.9.4-.9 1zM55 52.5v2c0 1.6 1.4.6 1.6-1.3.2-1.2-.1-2.2-.6-2.2-.6 0-1 .7-1 1.5zM51.1 54.7c0 2.5.1 2.6.9.8 1.2-2.7 1.2-3.5 0-3.5-.5 0-1 1.2-.9 2.7zM45.7 54.7c-.4.6 0 1.6.8 2.3 2.1 1.7 2.8.8 1.1-1.5-.8-1.1-1.5-1.4-1.9-.8zM42 58.6c0 1.1-.6 1.5-2 1.1-2.3-.6-2.7 1.1-.5 1.9 1.8.7 6.8-2.3 6-3.6-1-1.6-3.5-1.1-3.5.6zM35 63c0 .5.5 1 1 1 .6 0 1-.5 1-1 0-.6-.4-1-1-1-.5 0-1 .4-1 1zM31 64.8c0 1.2 1.9 2.6 2.6 1.9.2-.2-.2-1-1.1-1.7-.9-.8-1.5-.8-1.5-.2zM93 67c2 1.3 3.3 1.3 2.5 0-.3-.6-1.4-1-2.3-1-1.5 0-1.5.2-.2 1zM26.5 69c-.3 1.1-1.1 2-1.6 2-.6 0-.7.5-.4 1 1 1.6 4-.5 4.2-2.9.2-2.7-1.4-2.7-2.2-.1zM64.4 70.2c.3 1.3.6 2.8.6 3.4 0 1.1 4.9 3.8 5.7 3.1.2-.2-.8-1.2-2.2-2.1-1.5-1-2.5-2.6-2.5-4.1 0-1.4-.5-2.5-1.1-2.5-.7 0-.9.9-.5 2.2zM41.9 72c-6.8 2-10.8 6.6-11.4 13.2-1.1 11.6 10.1 19.7 20.8 15C57 97.7 60 92.9 60 86.3c0-6.5-4.2-12.8-9.2-13.8-1.8-.3-4-.8-4.8-1-.8-.2-2.7 0-4.1.5zM52 76.5c3.9 2 6.3 7.7 5.3 12.5-.8 4.4-5.3 8.7-9.7 9.5C41.4 99.7 34 95 34 89.8c0-.6.6-.5 1.6.3 1.4 1.1 1.5.9 1.2-2.2-.2-2.6-.7-3.3-2-3.1-2.3.4-2.3-.5.2-4.6 3.6-5.8 10.1-7.2 17-3.7z"/><path d="M43.7 78.7c-.4.3-.7 1.1-.7 1.7 0 .6.5.5 1.2-.2.6-.6.9-1.4.7-1.7-.3-.3-.9-.2-1.2.2zM47 80.5c-.9 1.1-1 1.8-.1 2.9.6.7.9 2.1.5 3-.9 2.4 1.2 2 3-.6 1.9-2.7 3.1-1.8 2.2 1.7-1.1 4.2-4.1 6.5-8.7 6.5-3.7 0-4 .2-2.8 1.6 1 1.2 2.4 1.5 5.4 1.1 6.5-.9 11.1-7.9 8.6-13.4-.6-1.3-1.7-2.3-2.4-2-.6.2-1.9-.2-2.8-1-1.4-1.2-1.8-1.1-2.9.2zM40.1 84.4c-.9 1-.9 1.6-.1 2.1 1.2.7 4-1.1 4-2.6 0-1.4-2.6-1-3.9.5zM89.6 73.5c-.8 2.2.9 4.4 2.4 2.9.7-.7.6-1.6-.3-2.8-1.3-1.8-1.4-1.8-2.1-.1zM83 74.5c0 .8.5 1.5 1 1.5.6 0 1-.7 1-1.5s-.4-1.5-1-1.5c-.5 0-1 .7-1 1.5zM20.6 74.8c-.3.6-.1 1.4.5 1.7 1.5 1 2.5-.3 1.2-1.6-.7-.7-1.3-.7-1.7-.1zM16.4 81.3c-1.6 1.4-2.4 2.9-2 3.5 1 1.7 2.6 1.5 2.6-.3 0-.8.4-1.5.9-1.5s1.1-.9 1.4-2c.7-2.5.4-2.5-2.9.3zM56.3 103.6c-4.6 3-6.7 5.4-4.7 5.4 1.1 0 9.2-5.1 10.4-6.5.6-.8 1.8-1.1 2.6-.8.8.3 1.4 0 1.4-.6 0-2.1-4.5-.9-9.7 2.5zM44.3 110.2c-2.5 1.2-2.9 2.3-1.3 3.3 1.2.8 6-2.1 6-3.5 0-1.3-1.9-1.2-4.7.2zM35.6 115.1c-2.5 3-.5 4.8 2.3 2 1.2-1.2 2.1-2.6 2.1-3.1 0-1.7-2.5-1.1-4.4 1.1zM140.8 1.7c.7.3 1.6.2 1.9-.1.4-.3-.2-.6-1.3-.5-1.1 0-1.4.3-.6.6zM135 6.9c0 1.1.4 2.2.9 2.5.4.3.6-.6.3-1.9-.5-3-1.2-3.3-1.2-.6zM124.1 7.6c0 1.1.3 1.4.6.6.3-.7.2-1.6-.1-1.9-.3-.4-.6.2-.5 1.3zM121.5 11c-.3.5-.2 1 .4 1 .5 0 1.3-.5 1.6-1 .3-.6.2-1-.4-1-.5 0-1.3.4-1.6 1zM116 19c0 .5.5 1 1.1 1 .5 0 .7-.5.4-1-.3-.6-.8-1-1.1-1-.2 0-.4.4-.4 1zM128.1 22.5c0 1.1.4 2.7.9 3.5.9 1.3 1 1.3.9 0 0-.8-.4-2.4-.9-3.5l-.9-2v2zM116 23c0 .5.5 1 1.1 1 .5 0 .7-.5.4-1-.3-.6-.8-1-1.1-1-.2 0-.4.4-.4 1zM238.9 35.1c-1.3.4-4.1.7-6.1.8-2 .1-4.7.5-6 1-1.3.5-5.7 1.9-9.8 3.1-4.1 1.3-11 4.1-15.2 6.2-7.4 3.8-21.7 14.9-23.6 18.4-.8 1.4-1.4 1.5-4.2.5-6.8-2.3-21.2-1.2-28.8 2.2-4.7 2.2-7.6 10.3-8.8 25-.4 4.8-1.1 9-1.5 9.3-1.6 1-.9 6.5 1.1 9.4 2 2.8 5.4 4 15.8 5.6 4.1.6 4.3.7 4 3.7-.3 2.9-.6 3.2-3.8 3.2-3.2.1-3.7.5-6.4 5.5-2.6 5-2.9 6.6-3.3 18-.6 14.7.2 19.2 3.8 20 2.1.5 2.4 1.2 2.5 5.6.2 7.7 1.4 22.7 2 23.5.2.4.7 3.3.9 6.3.3 3.1 1 6.7 1.5 8 .8 2.2.6 2.4-3.3 3-6.2 1-14.3 5.2-17.6 9.3l-3 3.7-5.1-4.8c-8.5-7.9-17.3-10.7-27.3-8.6-6.8 1.4-14 6-18.4 11.8l-3.2 4.3-1.5-2.3c-.8-1.3-3.7-4-6.4-6-6-4.6-15.3-7-26.9-6.9-9.4 0-14.3 1.7-17 5.7-2 3.1-2.2 9.6-.3 11.9.9 1.1 1.1 3.5.6 8.8-1 9.3-1 10 .2 24.1 1 10.8 1.3 12.1 3.7 14.6l2.7 2.8-2.1 2.9c-1.1 1.6-2.4 5.6-3 9.3-1.3 9.3-1.4 58-.1 62.9 2.8 10.6 17.3 10.9 21.6.5 1-2.3 1.4-7.9 1.4-18.5v-15.1l4 3.6c5.6 5 10.4 5 15.9 0l4-3.5.3 17 .3 17 2.9 3c3.6 3.7 8.1 4.7 12.7 2.8 3-1.2 3.8-1.2 6.9.4 3.1 1.6 4.7 1.8 13.6 1 5.6-.5 11.1-1.4 12.2-2 1.5-.8 2.7-.7 4.9.4 5.4 2.8 12.8 1 15.5-3.8.8-1.3 1.5-7.5 1.8-16.1l.5-13.8 11.3 16.6c11.8 17.4 14.2 19.6 20.6 19.6 3.8 0 9.6-4 9.7-6.8 0-1.3.3-1.2 1.1.5 2.5 5.2 7.2 5.9 43.3 5.6 7.2 0 33.9.1 59.5.4 49.6.4 52.1.2 59.1-4.4 5-3.3 9.1-11.4 9.2-18.2.1-7.4-4.4-15.6-10.6-19.5-4.4-2.7-5.8-3-15.8-3.4l-10.9-.5 6.3-6.6c14.3-15.2 24.8-33 28.8-48.6 2.8-11.1 2.8-24.6 0-35.2-1.1-4.5-2.1-9.2-2.1-10.6 0-1.4-.7-2.7-1.4-3-.8-.3-2.2-1.9-3-3.5-1.4-2.6-1.4-3.6-.2-7.3.8-2.4 1.7-5.7 2.1-7.2.4-2.2 1.1-2.8 2.8-2.7 4.4.4 5.2-.1 6.9-3.8 4-8.8 6.2-19.7 5.9-29.2-.2-7.5-.7-8.7-4.1-9.9-2.4-.8-3-1.6-3-4 0-3.5.4-3.6 9.3-2.1 6.7 1.1 10.9 0 12.5-3.3.6-1.2 1.6-5.8 2.1-10.2.6-4.4 1.5-11.4 2.1-15.5 1.3-9.4.6-15.1-2.3-17.8-4.5-4.1-17.2-8.9-25.1-9.4-3.7-.3-4.1-.7-9.1-8.8-2.8-4.7-6.9-10.4-9.1-12.7-4.6-5-16.2-14.3-17.7-14.3-.6 0-1.8-.6-2.6-1.4-4.9-4.1-31.4-13.2-49.6-16.8-5.8-1.2-27.1-1.7-30.6-.7zm28.1 9.4c11.5 1.5 19.6 3.1 22 4.4.9.5 3.1 1.2 5 1.6 1.9.4 6.1 1.9 9.2 3.3 5.2 2.2 5.9 2.9 6.9 6.6 1.6 5.7 1.3 14.9-.6 24.1-.9 4.4-1.7 8.1-1.9 8.2-.1.2-2-.6-4.2-1.6-2.1-1-5.9-2.4-8.4-3.1-2.5-.6-7.2-2-10.5-3.1-10.3-3.3-27.6-5.4-45.5-5.3-9.1 0-18.4.3-20.7.7l-4.2.6.5-6.2c.9-11.8 2.2-18.3 4.4-23 1.2-2.6 2.7-5.1 3.4-5.5 1.8-1.2 16.5-2.9 25.6-3 4.7-.1 13.2.5 19 1.3zm-51.7 8.7c-1.8 4.6-2.7 9-3.2 16.5-.6 10.5-1.1 11.9-4.6 12.5-2.9.5-3.1-4.7-.5-14.6 4.1-15.1 6.7-20.4 10.2-20.6.3 0-.5 2.8-1.9 6.2zm-7.6 2.1c-2.4 5.1-4.7 15.1-5 21.8-.2 4.2-.7 6.5-1.7 7-.8.4-5 2.4-9.3 4.4-6.5 3-8.5 3.5-11.7 3-4.6-.8-9.2 1.4-10.9 5.1-1.2 2.7-4.6 16-5.6 22.2-.6 4-2.7 6.3-4.2 4.8-.8-.8 2.5-17.7 4.9-25.1 5.1-15.6 14-28.3 26.2-37.5 7-5.3 18-11.2 18.4-9.9.2.5-.3 2.4-1.1 4.2zm108.8 5.4c1.4 3.8 1.8 23.3.5 29.2-1.4 6.5-1.6 6.8-4.4 4.8-1.5-1.1-1.6-1.9-.7-5.7 2.5-11.4 3.1-18.6 2.1-24.5-.5-3.3-1-6.1-1-6.2 0-.9 3 1.2 3.5 2.4zm11.5 6.6c14.4 11.2 22 23.2 26.5 42.2 1.4 5.5 1.6 8.9.9 16-.8 9.8-.8 12.6.2 19.7.6 4.7.5 4.8-2.1 4.8-2.4 0-2.6-.3-2.1-2.4.8-3.3.9-25.7.1-27.8-1.1-2.7-5.3-4.9-9.6-5-2.1 0-3.9-.4-3.9-.9 0-.8-12-10.7-16.9-13.9-2.3-1.5-2.3-1.8-1.1-7.4 1.3-6.3 1.6-20.3.5-26.6-.4-2.2-.4-4 0-4s3.7 2.4 7.5 5.3zm-155.1 1.1c.6.4-.1 2.5-1.9 5.5-1.7 2.7-3 5.3-3 6 0 .6-.5 1.1-1.1 1.1-.6 0-.8-1.1-.4-2.8.8-4-2.6-8.2-6.8-8.2-1.8 0-4.3-.3-5.7-.7-2.4-.7-2.3-.8 1-1.4 4.1-.8 16.4-.4 17.9.5zM149 73.1c-1.4.6-3.5 2-4.7 3.1-2.2 2.1-2.3 2.1-2.3.2 0-3 2-4.4 6-4.3 3.3 0 3.4.1 1 1zm13.7 2.1c1.3 1 1 5.7-.7 14.8-.5 2.5-1.4 7.4-2.1 11-1.5 8-3.5 13-5.2 12.9-.6 0-2.1-.4-3.2-.9-1.6-.7-1.7-.9-.3-.9.9-.1 2.8-1.5 4.2-3.2 3.7-4.3 3.5-9.1-.4-13.1-1.6-1.6-3-3.1-3-3.3 0-.2 1.2-.5 2.7-.7 3-.4 6-4 6.9-8.4.4-2.4 0-3.7-2-6.1-1.4-1.7-2.6-3.3-2.6-3.6 0-.7 4.3.4 5.7 1.5zm-13.2 3.5c-.5 1-1 3.3-1.3 5-.5 3.9-1.9 4.3-2.8.8-.4-1.6 0-3.4 1-5 1.9-2.9 4.2-3.4 3.1-.8zm114 5.2c31.3 4.4 60.1 17.2 72.8 32.5 5 6.1 5.6 7.8 6.1 20.3l.5 10.8-1.8-10c-1.9-10.4-3.6-16-5.5-18.4-1.8-2.3-14.9-10.7-21.8-13.9-12.6-5.9-25-10.5-33.6-12.2-49-10.2-91.1-4.8-100.1 12.8-2.8 5.3-7.3 17.2-9 23.7-1.1 3.8-2.4 8.1-3 9.5-1 2.1-1 1.9-.5-1.8.4-2.7.1-4.8-.6-5.7-1-1.2-.9-1.5.4-1.5 1.9 0 2.6-1.6 5.6-12.5 3-11.2 6.7-18.2 11.5-21.7 8.7-6.4 23.4-11.4 38-12.8 8.8-.9 31.5-.4 41 .9zm-116.9 7.4l2.7 1.4-3.6.7c-2 .4-4.1 1.4-4.6 2.4-1.6 2.9-1.9 1-.8-5.5 1.1-6.2 1.1-6.3 2.3-3.4.7 1.6 2.5 3.6 4 4.4zm220.2 3.8c10 2.7 11.8 4.4 3.6 3.5-7.4-.8-9.3-.2-10.9 3.7l-1.3 3-1.6-5.5c-.9-3.1-1.6-5.9-1.6-6.2 0-1.1 4-.6 11.8 1.5zm-98.6 1.4c13.6 3.2 18.3 4.5 27.8 7.6 18.7 6.2 35.5 16.4 38.4 23.3 2 4.9 3.8 15.8 4.1 25.6.2 6.3-2.2 24.7-4.6 36.1l-1.3 5.7-4.5-2.8c-10-6.1-25.8-9.5-41-8.7-12.5.6-20.2 2.5-29.1 7.1-6.3 3.2-6.6 3.2-8 1.4-1.5-1.7-1.8-1.7-11.5.3-6.4 1.3-11.5 1.8-14.2 1.4-5.2-.8-10.3-4.8-10.3-8.1 0-1.3-.5-2.4-1.1-2.4-.7 0-.9-.9-.5-2.4s.1-2.6-.7-3c-.9-.3-.7-.9.6-1.9.9-.8 1.5-2.1 1.2-2.9-.4-1.1.2-1.8 1.8-2.2 2.2-.5 2.5-1.3 3.1-7.3.6-6.6.6-6.9-2.3-9.3-4.8-4.1-12.2-6.3-19.7-5.8-8.8.5-11.1 2.8-12.3 12.3-.5 3.9-1.4 8.3-2 9.8-1.6 4.2-1.3 8.5.7 11.5 2 2.9 3.7 7.1 4.6 11.4.4 1.5 1.4 3.2 2.4 3.7.9.5 4.4 3.5 7.7 6.6 4.6 4.3 6.2 5.3 7 4.3.5-.7 2.6-1.4 4.5-1.5 2.2-.2 4-1 4.9-2.3 1.6-2.4 2.8-2.5 7-.4 3.1 1.6 3.3 1.5 4.7-.5 1.9-2.7 6-2.8 6.7-.1.4 1.5 1.4 2 3.6 2h3l-3.9 6.2c-2.2 3.5-4 6.9-4 7.7 0 .9-1.2.3-3.1-1.6-3.8-4-8.1-4.6-28.1-4.1-13.5.3-14.9.5-17.8 2.6l-3.2 2.4-2.8-2.7c-2.7-2.6-6.3-8.9-7.4-13-.8-3-1-37.1-.2-45 .8-7.7 3.3-19.9 4.7-23 .5-1.1 1.8-5 2.9-8.7 1.1-3.6 2.7-7.9 3.5-9.5.8-1.5 1.5-3.4 1.5-4.1 0-2.8 4.8-8.2 9-10.2 2.5-1.2 5.2-2.5 6.1-3 1.3-.7 7.3-2 19.9-4.4 1.4-.2 12.1-.3 23.7-.1 15.5.2 23.3.8 28.5 2zm-89.4-.8c-.2.5-1.9 3.9-3.9 7.8-2 3.8-4.4 10.4-5.4 14.5-2 8.4-2 8.4-3.3 7.6-.6-.3-.6-2.2-.1-4.8.5-2.4 1.4-7 2-10.3.6-3.3 2-8.1 3.2-10.8 1.8-4 2.5-4.7 5-4.7 1.6 0 2.7.3 2.5.7zm-33.6 7.1c-.3 4.4-.6 5.1-1.8 4.1-2-1.7-1.8-7.6.3-8.8 1-.5 1.8-.9 1.9-.8 0 .1-.2 2.6-.4 5.5zm223.2 1.1c-3.3 1.5-4.5 2.7-5.4 5.7-1.1 3.3-1 4.2.6 7.2 1 1.9 3.2 4.1 4.9 4.8 2.7 1.2 2.8 1.3.7 1.4-1.4 0-3.9 1.5-5.8 3.4-4.4 4.4-4.5 8.2-.5 12.5 2.8 3 2.8 3.1.7 3.1-1.2 0-3-.6-4.1-1.4-1.5-1.1-1.7-2.2-1.2-7.2 1.8-15.9 3.8-28.9 4.8-30.1.6-.7 3-1.3 5.3-1.3h4.1l-4.1 1.9zm12.7.1c1.3.7 1.9 2.1 1.9 4.3v3.2l-2-3.3c-1.1-1.7-2.4-3.2-3-3.2-.5 0-1-.5-1-1 0-1.3 1.6-1.3 4.1 0zm-238.9 7.8c-1.8.5-4.2-1.7-4.2-3.9 0-1.5.4-1.4 2.8.9 1.8 1.8 2.3 2.8 1.4 3zm236.8.9c0 1.8-1.8 5.3-2.8 5.3-.4 0-.7-2.5-.7-5.6 0-5.4 0-5.5 1.8-3.3.9 1.1 1.7 2.8 1.7 3.6zm-31.2 7.4c1.7 1.7 1.9 3.2 1.6 10.2-.7 12.8-1.8 20.8-2.9 20.5-.6-.2-.9-3.8-.7-9 .4-8-.7-15.9-2.9-21.6-.7-1.8-.5-2.2 1.1-2.2 1 0 2.8.9 3.8 2.1zm33.4 3.1c-.2 2.9-.6 5.5-.8 5.7-.2.2-1.3-.8-2.5-2.2-1.1-1.5-2.7-2.7-3.5-2.7-.8 0-1.2-.5-.9-1 .3-.6 1.4-1 2.4-1s2.6-.9 3.6-2 1.9-2 2-2c.1 0 0 2.4-.3 5.2zm-223.6 5.1c.2.2-.2 2.2-1 4.3-1.5 4.5-2.8 15.9-2.8 25.1v6.3h-3.4c-2.8 0-3.6-.5-4.4-2.6-1.4-3.7-1.2-11.8.5-21.9 2.1-11.7 2.8-12.9 7.2-12.2 2 .4 3.7.8 3.9 1zm219.2 4.4c.2 2.3-.3 3.5-2 4.7-3.2 2.3-4.2 2-2.4-.6.9-1.2 1.6-3.5 1.6-5.1 0-3.9 2.4-3 2.8 1zm-215.2 0c-.7 1.6-1.7 5.3-2.1 8.3-.4 3-1.1 6.4-1.6 7.5-1.5 3.7-1-3.6.6-10 2-8 2.3-8.5 3.5-8.5.7 0 .5 1-.4 2.7zm215.5 9.4c-1.2 1-2.8 1.6-3.4 1.2-.6-.4-.2-.9 1-1.4 1.2-.4 2.4-1.3 2.8-1.9.4-.6 1-.8 1.4-.5.3.4-.5 1.5-1.8 2.6zm-210.4 2.1c-.3.8-.6.5-.6-.6-.1-1.1.2-1.7.5-1.3.3.3.4 1.2.1 1.9zm-1 10c-.3.8-.6.5-.6-.6-.1-1.1.2-1.7.5-1.3.3.3.4 1.2.1 1.9zm179.3.7c0 1.7-1.8 2.1-2.4.6-.3-.9 0-1.5.9-1.5.8 0 1.5.4 1.5.9zm6.3 9.4l-.8 6.2-.5-7c-.6-7.7-.2-9.6 1.2-7.1.6 1.1.6 4.2.1 7.9zm11.5-.3c.2 6.5-.2 10.2-1.9 15.5-4 13.1-3.7 12.8-7.8 12-4.6-.9-4.7-1-3.3-4 1.7-3.7 4-15.7 4.8-24.8l.7-7.8 3.6.3 3.6.3.3 8.5zM159 162c0 .5-.4 1-1 1-.5 0-1-.5-1-1 0-.6.5-1 1-1 .6 0 1 .4 1 1zm5.5 20.8v21.7l3.2 6.2c1.7 3.5 3 6.3 2.8 6.3-2.2 0-5.6-2.9-6.8-5.9-2.1-4.9-2.7-10-3.4-28.2-.4-13.2-.3-16.1 1.1-18.7.9-1.8 2-3.2 2.4-3.2.4 0 .7 9.8.7 21.8zm-8.1-13.6c.9 2.8 1.6 31.8.8 31.8-2.4 0-5.9-20.9-4.8-28.3.5-3.1 1.2-4.7 2.2-4.7.8 0 1.6.6 1.8 1.2zM341 180.7c.1 12.3-.1 14.5-1.1 16.4-2 3.7-3.2 2.1-2.5-3.4 1-7.9 3-19.7 3.3-19.7.2 0 .3 3 .3 6.7zm8.7-3.5c-.3.8-.6.5-.6-.6-.1-1.1.2-1.7.5-1.3.3.3.4 1.2.1 1.9zm-2 6c-.3.8-.6.5-.6-.6-.1-1.1.2-1.7.5-1.3.3.3.4 1.2.1 1.9zm-.7 3.2c0 .3-.4.8-1 1.1-.5.3-1 .1-1-.4 0-.6.5-1.1 1-1.1.6 0 1 .2 1 .4zm.4 10.3c-1.6 7.6-2.5 9.4-4 8.2-2.7-2.2-.6-10.9 2.7-10.9 1.6 0 1.8.5 1.3 2.7zm-41.2 1.7c18 3.9 30.8 15.9 35.3 33.1 2.3 8.8 2 23.7-.6 32.1-4.6 15-12.4 26.8-28.4 43.2-13.2 13.6-16.8 16.6-13.4 10.8 2.6-4.5 3.4-12.2 1.9-18.5l-1.2-5.1 5.2-5.7c11.9-13.3 18.9-28.5 19-40.9 0-14.5-4.8-23.2-15.7-28.6-6.4-3.1-7.4-3.3-17.3-3.3-9.1 0-11.1.4-15 2.4-10.8 5.6-15.5 12.2-16.7 23.2-.8 8.2-3.2 10.9-9.8 10.9-6.6 0-9.5-3.1-9.5-10.2.1-19.8 13.7-37.3 33.4-42.9 7.6-2.2 23.6-2.4 32.8-.5zm-147 9.8c1.9 5.7 1.9 6.1-.5 5.2-1.7-.6-2.1-1.5-3.2-7.2-1.1-5.4 1.8-3.9 3.7 2zm-46.4 13.4c19.9 9.9 20.8 41.3 1.5 51.6-10.3 5.5-19.8 4.2-28.4-3.9-6.6-6.2-9.3-13.2-8.7-22.9 1.3-20.4 19.3-33 35.6-24.8zm110-.3c1.8 1.4 1.5 4.4-.5 5.6-1.1.6-7.5.7-16 .4l-14.3-.6v15.9h9.8c9.1-.1 9.7 0 10 2 .5 3.3-2 4.4-11.2 5.1l-8.6.6v18.8l14.8-.2c8.2-.1 15.4.1 16 .5 1.6.9 1.5 4.1-.1 5.4-1.8 1.5-31.5 2.7-34.8 1.4-2-.8-2.8-2-3.3-4.7-1.1-5.8-.9-45.7.3-48.7.6-1.5 2-2.8 3.3-3.1 4-.8 33.2.5 34.6 1.6zm-169.9.1c9 2.5 16.2 8.5 19.1 16.1 4.2 10.8 3.2 22.6-2.5 29.2-5.3 6.2-11.9 8.6-24.6 9.1-13.8.5-13.9.5-13.9-12.9 0-5.9-.4-9.9-1-9.9-.5 0-1-1.1-1-2.4 0-1.4.5-2.8 1-3.1.6-.3 1-4.6 1-9.4 0-6.8-.4-9.2-1.5-10.1-2.6-2.2-1.4-5.4 2.5-6.7 4.8-1.6 14.4-1.6 20.9.1zm112.8 1.1c7.9 3.6 12.1 11.9 7.3 14.5-1.7.9-2.6.4-6.3-3.4-7.6-7.8-17.3-8.3-23.5-1.2-4.2 4.8-5.5 9.6-5 17.6 1.2 15.8 11.1 22.6 24.2 16.4 3.5-1.7 6.6-6.4 6.6-10.1 0-1.7-.6-1.8-8.1-1.2-8.8.8-10.4.5-11.3-1.7-.8-2.2.4-4.4 2.8-4.9 6.5-1.4 23.9-2.4 25.7-1.5 2.2 1.2 2.5 4.3.6 5.9-.8.6-1.9 3.6-2.6 6.7-1.5 6.5-5.7 11.9-11.6 14.5-4.8 2.2-15.2 2.5-19.9.5-15.1-6.3-19.5-33-7.8-46.7 7-8.1 18.5-10.3 28.9-5.4zm136.1 8.5c2.5 1.1 4.1 2.4 3.7 3-1.7 2.8-17.6 8.5-29.4 10.4l-3.3.6.7-3.8c.9-5.1 2.9-7.8 7.3-10.1 5.1-2.7 15.2-2.8 21-.1zm-75.4 6.3c-.6 4.5-.7 4.6-3.8 4-1.7-.3-4.8-1.7-6.8-3-2-1.4-6.1-2.9-9-3.3-4.5-.6-3.7-.8 5.7-.9 6.1-.1 11.7-.5 12.5-1.1 2-1.2 2.1-1 1.4 4.3zm-68.1-2.2c2.4 1.3 3.7 2.8 3.7 4.5 0 .6-2.7 1.4-6.2 1.8-3.8.4-7.4 1.4-9 2.6l-2.6 1.9.8-2.8c2.3-8.2 7.3-11.1 13.3-8zm151.5 6c.5 2.7-19 10.3-31.3 12.3-2.2.4-4.8.9-5.7 1.2-1.2.3-1.8 0-1.8-1 0-2 .6-2.3 9.6-4.1 4.3-.9 8.8-2 9.9-2.4 1.1-.5 5.1-2.2 8.8-3.7 3.7-1.5 7-3.1 7.3-3.6.8-1.3 2.8-.4 3.2 1.3zm-86 6c2.9 1 5.2 4.9 2.9 4.9-3 0-8.7-2.2-8.7-3.4 0-2.7 1.3-3.1 5.8-1.5zm85 3.4c-1.5 1.4-7.5 3.6-17.3 6.3-11.1 3.2-27.5 6.3-27.5 5.3.1-1.6 5.2-4 9.6-4.6 8.3-1.1 22.7-5.2 29.5-8.3 5.2-2.4 6.5-2.7 6.7-1.5.2.9-.2 2.1-1 2.8zm-85.7 4.1c4.7 1.1 7.4 2.2 8.4 3.7.8 1.1 1.3 2.2 1.1 2.5-.5.5-15.3-2.6-19.3-4l-3.3-1.2 2.8-1.2c1.5-.7 2.8-1.3 3-1.3.2-.1 3.4.6 7.3 1.5zm85.9 1.1c-.1 3.1-14.6 25.7-17.9 27.7-.4.3-3.3-.5-6.6-1.6-5.1-1.7-7.6-1.9-17.5-1.5-6.3.3-13.8 1.2-16.6 1.9-4.4 1.2-5.4 1.2-7.2 0-1.2-.8-5.1-1.7-8.7-1.9-5.8-.5-6.3-.7-5.5-2.4 1.7-3.1 1.2-9.4-1.1-12.3-1.1-1.4-1.9-2.6-1.7-2.6.3 0 2.8.7 5.6 1.5 7.3 2.2 26.8 2.7 36.7.9 4.4-.8 9.9-1.7 12.3-2 2.3-.4 4.5-1.1 4.8-1.5.3-.5 1.4-.9 2.5-.9 2 0 13.5-3.3 17.4-5 2.6-1.1 3.5-1.2 3.5-.3zM205 257c1.1.7.6 1-2.2 1-2 0-4-.5-4.3-1-.8-1.3 4.5-1.3 6.5 0zm12.9 4.6c.2.2-4 .3-9.5.2-7.5-.1-8.8-.3-5.4-.8 4.2-.6 14-.2 14.9.6zM84.3 277.1c4 2.9 4 2.9 1 2.3-5.2-1-9.4 1.9-17.5 12.1l-7.5 9.4-7-8.8-7-8.7 6.6-1.2c8.3-1.6 18.5-6.5 21.3-10.2l2.1-2.9 2 2.6c1.1 1.4 3.8 3.8 6 5.4zm60.3 4.5c10.1 2.9 21.6.8 29.6-5.6l3.6-3 1.9 3.8c1 2.1 3.1 4.3 4.9 5.2 2.5 1.2 2.9 1.8 2.2 3-.9 1.3-1.5 1.1-4.3-1.7s-4-3.3-7.9-3.3c-3.6 0-5.2.6-7.8 2.9l-3.3 2.9-.5 15.2-.5 15.2-2.6-3.8c-10.7-16.2-20.4-29.6-22.2-30.9-2.6-1.8-10-2-12.7-.3-1.5.9-2.4.9-4.3-.1l-2.5-1.3 5.2-5.2 5.1-5.1 5.1 5.2c4 4 6.4 5.5 11 6.9zm-51.1.3c.3.5.1 1.2-.4 1.5-.5.3-1.1-.1-1.5-.9-.6-1.6.9-2.1 1.9-.6zm-52 6.8c1.5 1.6 6.4 7.4 10.7 13.1l8 10.2 10.4-13c8.3-10.3 11-13 12.9-13 1.4 0 2.9.8 3.5 1.9 1.5 2.9 1.4 67.3-.2 68.9-1.5 1.5-5.1 1.5-6.6 0-.9-.9-1.2-8.2-1.2-26.8v-25.5l-2.7 3.5c-1.5 1.9-5.7 6.6-9.4 10.4l-6.8 6.8-2.5-1.8c-1.4-1.1-5.7-5.9-9.6-10.8l-7-8.8v25.4c0 18.8-.3 25.8-1.2 27-2.2 2.6-4.7 2.9-6.8.8-1.9-1.9-2-3.4-2-30.8 0-29.1.8-36.7 3.7-39 2.5-1.8 3.7-1.5 6.8 1.5zm76.3-1.5c2.9 2.9.7 7.8-3.5 7.8H112v54h2.3c2.9 0 4.7 1.8 4.7 4.7 0 3.1-2.2 4-11.6 4.8-6.8.6-8.3.4-9.7-1-3.2-3.2-1.5-7.5 3-7.5h2.3v-54h-2.3c-4.5 0-6.2-4.3-2.9-7.3 2.6-2.3 18-3.5 20-1.5zm16.5.3c.9.8 9.1 12.5 18.4 26.1l16.8 24.6.3-25.1c.2-24.3.3-25.1 2.3-26.2 1.6-.8 2.8-.8 4.5 0l2.4 1.1v34.4c0 34.4 0 34.5-2.2 36-1.9 1.3-2.5 1.4-4.3.2-1.1-.7-9.6-12.3-19-25.8l-17-24.6-.3 23.6c-.1 15.3-.6 24-1.3 24.9-.6.7-2.2 1.3-3.4 1.3-4.8 0-5-1.1-5.3-35.2-.3-28-.2-32.2 1.2-34.3 1.9-2.8 4.7-3.2 6.9-1zm106 1.6c1.5 1.9 1.6 2.4.4 4.3-1.4 2-2.4 2.1-21.1 2.4l-19.6.2v20l7.3-.5c3.9-.3 8.8-.8 10.8-1 4-.5 7.9 1.6 7.9 4.4 0 3.7-3.1 4.9-14.8 5.6l-11.3.7.3 12 .3 12.1 20 .1 20 .1.3 3.1c.2 1.7-.3 3.6-1 4.2-1.6 1.3-37.7 2.8-43.2 1.8-2.8-.5-3.9-1.4-4.7-3.4-1.9-4.9-2.7-33.6-1.3-50.7.6-8.8 1.2-16.1 1.3-16.3.7-1.7 7.5-2.2 25.6-1.8 20.2.4 21 .5 22.8 2.7zm38.6-2c9.2 2 15.4 8.1 16.7 16.5 1.2 8.5-6.9 20-15.7 21.9l-3 .7 4.3 2.7c7.2 4.6 12.3 11.8 14.7 20.9.7 2.4.9 5.1.6 6.2-1.5 4.8-7.5 2.5-9.5-3.7-4.4-13.7-12.6-20.2-25.7-20.3H258v11.9c0 9.5-.3 12.3-1.6 13.5-1.8 1.9-2.8 2-5.5.6-1.8-1-1.9-2.4-1.9-30v-28.9l-2.2-.3c-1.8-.2-2.4-1.1-2.6-3.5-.3-2.7.2-3.4 2.9-4.9 7-3.6 22.9-5.2 31.8-3.3zm-159.2 39.6c-.1 4.9-.3.9-.3-8.7s.2-13.6.3-8.8c.2 4.9.2 12.7 0 17.5zm-24 7c-.1 6-.3 1.1-.3-10.7 0-11.8.2-16.7.3-10.8.2 6 .2 15.6 0 21.5zm145.1-30.1c.8.2 1.2 2.9 1.2 8.7v8.3l-3.9 2.2c-6.3 3.5-9.8 8.6-11.5 16.3-.6 3-3.8 3.9-13.8 3.9h-5.6l-.4-5.9-.3-5.9 9.2-.4c10.6-.6 13.7-2 16-7.6 2.1-5 .4-10.5-4-13.3-2.8-1.8-4.3-2-11.9-1.5l-8.8.5V302l16.3.6c8.9.3 16.8.7 17.5 1zm99.7 32.9c1.7 1.6 2.5 3.5 2.5 5.9 0 8.6-2.3 9.6-23.3 9.6h-16.5l-1-4.3c-.6-2.3-2.2-6.4-3.6-9l-2.5-4.7h21c21 0 21 0 23.4 2.5zm-98.9 6.3c-1.2 1.1-1.8-.7-1-3l.8-2.3.4 2.3c.2 1.3.1 2.6-.2 3zm31.4-.9c2.6 1.8 7 7.7 7 9.2 0 .5-3.4.9-7.5.9H265v-13.2l2.8.6c1.5.4 3.8 1.5 5.2 2.5z"/><path d="M200.3 115.9c-2.9 1.8-3.3 2.6-3.3 6.5 0 3.3.7 5.2 2.6 7.5 3.2 3.8 4.4 3.9 9.7.2 3.4-2.3 4.5-3.8 5.5-7.7 1.6-6 .6-7.2-6.4-8-3.8-.4-5.6-.1-8.1 1.5zm9.5 2.3c-.3.7-1.3 1.5-2.4 1.7-3.1.5-4.4 2.1-4.4 5.3 0 3.7-2.1 3.3-3.5-.6-.8-2.5-.6-3.1 1.8-5.2 3-2.6 9.2-3.4 8.5-1.2zM259.5 124.6c-1.6.8-3.4 2.2-3.8 3-.4.8-1.7 1.4-2.7 1.4-1.1 0-2.4.9-3 2-.6 1.1-1.7 2-2.5 2-2.8 0-1.5 3.7 2.5 6.9 3.1 2.5 5.4 3.4 9.4 3.8 8.6.9 12.2-.2 17.7-5.6 2.7-2.6 4.9-5.3 4.9-5.8 0-1.5-6.8-6.4-10.9-7.9-4.8-1.8-8-1.7-11.6.2zm8.5 2.6c-.1.7-1.5 2.2-3.3 3.3-4.2 2.7-4.5 5.1-1.1 8.6l2.8 2.9h-4.1c-5.2 0-7.8-2.6-6.9-7.1.6-3 3.9-7.1 6.8-8.2 2.5-1 5.8-.7 5.8.5zM244.5 145c.3.5.8 1 1.1 1 .2 0 .4-.5.4-1 0-.6-.5-1-1.1-1-.5 0-.7.4-.4 1zM98.3 227.1c-3.8 1.1-10.8 8.8-12.4 13.6-1.9 5.9-.8 15.5 2.5 20.2 3.2 4.6 9.6 8.1 14.7 8.1 4.5 0 10.8-3.7 13.6-7.9 5.2-7.7 5.3-16 .3-24.7-4.5-7.9-11.6-11.5-18.7-9.3zm9.5 8.4c4 3.3 6.2 8.3 6.2 14 0 4.2-.5 5.2-3.9 8.6-5.2 5.2-9.8 5.4-14.6.6-6.1-6.1-5.6-16 1.2-22.4 4.1-3.9 7.1-4.2 11.1-.8zM39 236.9v9.1h6.9c7.5 0 9.2 1 8.1 5-.5 2.3-1 2.5-7.8 2.8l-7.2.3v15.2l7.2-.7c16.6-1.7 22.7-8.5 19.9-22.2-2.5-12.5-7.8-17.3-20.2-18.2l-6.9-.5v9.2zm15.3.7c2.1 1.4 3.7 2.7 3.5 2.9-.2.1-2.9 0-6-.2-5.3-.5-5.8-.8-5.8-2.9 0-3.3 3.4-3.2 8.3.2zM52 261c-3.6 1.2-6 1.2-6 0 0-.6 1.9-1 4.3-.9 3.6.1 3.8.2 1.7.9zM258.7 296.7c-.4.3-.7 6.4-.7 13.5V323l2.8-.6c12.1-2.7 18.6-5.7 22.6-10.4 4.3-5.2 3.3-11.6-2.4-14.5-3-1.5-21-2.2-22.3-.8zm8.9 6.8c-2.1 1.6-3.2 1.3-2.1-.4.3-.6 1.4-1.1 2.3-1.1 1.5.1 1.5.2-.2 1.5zM114 59c0 .5.5 1 1.1 1 .5 0 .7-.5.4-1-.3-.6-.8-1-1.1-1-.2 0-.4.4-.4 1z"/></svg>